<svg width="535" height="64" viewBox="0 0 535 64" fill="none" xmlns="http://www.w3.org/2000/svg">
<g filter="url(#filter0_d_36_5)">
<mask id="path-1-outside-1_36_5" maskUnits="userSpaceOnUse" x="4" y="4" width="158" height="50" fill="black">
<rect fill="white" x="4" y="4" width="158" height="50"/>
<path d="M13.4267 52V6.172H15.1367V52H13.4267ZM5.90273 52V6.172H7.61273V52H5.90273ZM9.66473 52V6.172H11.3747V52H9.66473ZM28.0947 52V6.172H29.8047V52H28.0947ZM20.5707 52V6.172H22.2807V52H20.5707ZM24.3327 52V6.172H26.0427V52H24.3327ZM64.9737 52V6.172H66.6837V52H64.9737ZM57.4497 52V6.172H59.1597V52H57.4497ZM61.2117 52V6.172H62.9217V52H61.2117ZM45.7647 25.552L44.7387 24.013L55.3977 8.566V11.587L45.7647 25.552ZM48.0447 35.413L31.8567 12.271V9.364L49.1277 33.931L48.0447 35.413ZM48.1017 28.858L47.0757 27.319L55.3977 15.463V18.427L48.1017 28.858ZM45.7647 38.776L31.8567 18.94V15.919L46.7907 37.237L45.7647 38.776ZM50.3817 32.107L49.3557 30.625L55.3977 22.018V24.982L50.3817 32.107ZM43.4847 42.025L31.8567 25.495V22.474L44.5107 40.543L43.4847 42.025ZM78.4139 52L95.0009 6.172H96.8249L80.2379 52H78.4139ZM70.4339 52L87.0209 6.172H88.7879L72.2579 52H70.4339ZM74.4239 52L90.9539 6.172H92.8349L76.2479 52H74.4239ZM111.816 52L96.9389 10.903L97.8509 8.338L113.64 52H111.816ZM107.826 52L95.0009 16.489L95.8559 13.867L109.65 52H107.826ZM103.836 52L93.0059 22.018L93.9179 19.453L105.66 52H103.836ZM87.7049 36.838L88.3319 35.128H95.8559L96.4829 36.838H87.7049ZM86.3369 40.657L86.9639 38.947H97.2239L97.8509 40.657H86.3369ZM84.9689 44.419L85.5959 42.709H98.5919L99.2189 44.419H84.9689ZM137.832 28.63V26.92H160.233V28.63H137.832ZM137.832 32.392V30.682H160.233V32.392H137.832ZM137.832 36.154V34.444H160.233V36.154H137.832ZM137.718 52.855C134.146 52.855 130.897 52.247 127.971 51.031C125.083 49.777 122.594 48.067 120.504 45.901C118.414 43.735 116.799 41.227 115.659 38.377C114.519 35.489 113.949 32.392 113.949 29.086C113.949 25.78 114.519 22.702 115.659 19.852C116.799 16.964 118.414 14.437 120.504 12.271C122.594 10.105 125.083 8.414 127.971 7.198C130.897 5.944 134.146 5.317 137.718 5.317C142.278 5.317 146.306 6.324 149.802 8.338C153.298 10.314 156.034 12.955 158.01 16.261L156.528 17.23C154.704 14.152 152.177 11.682 148.947 9.82C145.755 7.958 142.012 7.027 137.718 7.027C134.374 7.027 131.353 7.597 128.655 8.737C125.957 9.877 123.639 11.454 121.701 13.468C119.763 15.482 118.262 17.838 117.198 20.536C116.172 23.196 115.659 26.046 115.659 29.086C115.659 32.126 116.172 34.995 117.198 37.693C118.262 40.353 119.763 42.69 121.701 44.704C123.639 46.718 125.957 48.295 128.655 49.435C131.353 50.575 134.374 51.145 137.718 51.145C140.986 51.145 143.95 50.594 146.61 49.492C149.27 48.39 151.569 46.851 153.507 44.875C155.445 42.899 156.946 40.638 158.01 38.092H159.891C158.789 40.98 157.174 43.545 155.046 45.787C152.956 47.991 150.448 49.72 147.522 50.974C144.596 52.228 141.328 52.855 137.718 52.855ZM137.718 45.331C134.336 45.331 131.429 44.609 128.997 43.165C126.565 41.683 124.703 39.707 123.411 37.237C122.119 34.767 121.473 32.05 121.473 29.086C121.473 26.084 122.119 23.367 123.411 20.935C124.703 18.465 126.565 16.508 128.997 15.064C131.429 13.582 134.336 12.841 137.718 12.841C140.986 12.841 143.798 13.544 146.154 14.95C148.548 16.318 150.391 18.142 151.683 20.422L150.201 21.391C149.061 19.339 147.427 17.705 145.299 16.489C143.171 15.235 140.644 14.608 137.718 14.608C134.678 14.608 132.056 15.273 129.852 16.603C127.686 17.895 126.033 19.643 124.893 21.847C123.753 24.013 123.183 26.426 123.183 29.086C123.183 31.746 123.753 34.178 124.893 36.382C126.033 38.548 127.686 40.296 129.852 41.626C132.056 42.918 134.678 43.564 137.718 43.564C140.34 43.564 142.639 43.07 144.615 42.082C146.591 41.056 148.168 39.726 149.346 38.092H151.512C150.182 40.296 148.339 42.063 145.983 43.393C143.627 44.685 140.872 45.331 137.718 45.331ZM137.718 49.093C134.678 49.093 131.923 48.58 129.453 47.554C127.021 46.49 124.912 45.046 123.126 43.222C121.378 41.398 120.029 39.289 119.079 36.895C118.167 34.463 117.711 31.86 117.711 29.086C117.711 26.312 118.167 23.728 119.079 21.334C120.029 18.902 121.378 16.774 123.126 14.95C124.912 13.088 127.021 11.644 129.453 10.618C131.923 9.592 134.678 9.079 137.718 9.079C141.632 9.079 145.052 9.934 147.978 11.644C150.942 13.316 153.241 15.539 154.875 18.313L153.393 19.282C151.873 16.736 149.783 14.703 147.123 13.183C144.463 11.625 141.328 10.846 137.718 10.846C133.994 10.846 130.745 11.663 127.971 13.297C125.235 14.931 123.126 17.135 121.644 19.909C120.162 22.645 119.421 25.704 119.421 29.086C119.421 32.43 120.162 35.489 121.644 38.263C123.126 41.037 125.235 43.241 127.971 44.875C130.745 46.509 133.994 47.326 137.718 47.326C141.48 47.326 144.748 46.49 147.522 44.818C150.296 43.108 152.405 40.866 153.849 38.092H155.787C154.267 41.36 151.949 44.02 148.833 46.072C145.717 48.086 142.012 49.093 137.718 49.093Z"/>
</mask>
<path d="M13.4267 52V6.172H15.1367V52H13.4267ZM5.90273 52V6.172H7.61273V52H5.90273ZM9.66473 52V6.172H11.3747V52H9.66473ZM28.0947 52V6.172H29.8047V52H28.0947ZM20.5707 52V6.172H22.2807V52H20.5707ZM24.3327 52V6.172H26.0427V52H24.3327ZM64.9737 52V6.172H66.6837V52H64.9737ZM57.4497 52V6.172H59.1597V52H57.4497ZM61.2117 52V6.172H62.9217V52H61.2117ZM45.7647 25.552L44.7387 24.013L55.3977 8.566V11.587L45.7647 25.552ZM48.0447 35.413L31.8567 12.271V9.364L49.1277 33.931L48.0447 35.413ZM48.1017 28.858L47.0757 27.319L55.3977 15.463V18.427L48.1017 28.858ZM45.7647 38.776L31.8567 18.94V15.919L46.7907 37.237L45.7647 38.776ZM50.3817 32.107L49.3557 30.625L55.3977 22.018V24.982L50.3817 32.107ZM43.4847 42.025L31.8567 25.495V22.474L44.5107 40.543L43.4847 42.025ZM78.4139 52L95.0009 6.172H96.8249L80.2379 52H78.4139ZM70.4339 52L87.0209 6.172H88.7879L72.2579 52H70.4339ZM74.4239 52L90.9539 6.172H92.8349L76.2479 52H74.4239ZM111.816 52L96.9389 10.903L97.8509 8.338L113.64 52H111.816ZM107.826 52L95.0009 16.489L95.8559 13.867L109.65 52H107.826ZM103.836 52L93.0059 22.018L93.9179 19.453L105.66 52H103.836ZM87.7049 36.838L88.3319 35.128H95.8559L96.4829 36.838H87.7049ZM86.3369 40.657L86.9639 38.947H97.2239L97.8509 40.657H86.3369ZM84.9689 44.419L85.5959 42.709H98.5919L99.2189 44.419H84.9689ZM137.832 28.63V26.92H160.233V28.63H137.832ZM137.832 32.392V30.682H160.233V32.392H137.832ZM137.832 36.154V34.444H160.233V36.154H137.832ZM137.718 52.855C134.146 52.855 130.897 52.247 127.971 51.031C125.083 49.777 122.594 48.067 120.504 45.901C118.414 43.735 116.799 41.227 115.659 38.377C114.519 35.489 113.949 32.392 113.949 29.086C113.949 25.78 114.519 22.702 115.659 19.852C116.799 16.964 118.414 14.437 120.504 12.271C122.594 10.105 125.083 8.414 127.971 7.198C130.897 5.944 134.146 5.317 137.718 5.317C142.278 5.317 146.306 6.324 149.802 8.338C153.298 10.314 156.034 12.955 158.01 16.261L156.528 17.23C154.704 14.152 152.177 11.682 148.947 9.82C145.755 7.958 142.012 7.027 137.718 7.027C134.374 7.027 131.353 7.597 128.655 8.737C125.957 9.877 123.639 11.454 121.701 13.468C119.763 15.482 118.262 17.838 117.198 20.536C116.172 23.196 115.659 26.046 115.659 29.086C115.659 32.126 116.172 34.995 117.198 37.693C118.262 40.353 119.763 42.69 121.701 44.704C123.639 46.718 125.957 48.295 128.655 49.435C131.353 50.575 134.374 51.145 137.718 51.145C140.986 51.145 143.95 50.594 146.61 49.492C149.27 48.39 151.569 46.851 153.507 44.875C155.445 42.899 156.946 40.638 158.01 38.092H159.891C158.789 40.98 157.174 43.545 155.046 45.787C152.956 47.991 150.448 49.72 147.522 50.974C144.596 52.228 141.328 52.855 137.718 52.855ZM137.718 45.331C134.336 45.331 131.429 44.609 128.997 43.165C126.565 41.683 124.703 39.707 123.411 37.237C122.119 34.767 121.473 32.05 121.473 29.086C121.473 26.084 122.119 23.367 123.411 20.935C124.703 18.465 126.565 16.508 128.997 15.064C131.429 13.582 134.336 12.841 137.718 12.841C140.986 12.841 143.798 13.544 146.154 14.95C148.548 16.318 150.391 18.142 151.683 20.422L150.201 21.391C149.061 19.339 147.427 17.705 145.299 16.489C143.171 15.235 140.644 14.608 137.718 14.608C134.678 14.608 132.056 15.273 129.852 16.603C127.686 17.895 126.033 19.643 124.893 21.847C123.753 24.013 123.183 26.426 123.183 29.086C123.183 31.746 123.753 34.178 124.893 36.382C126.033 38.548 127.686 40.296 129.852 41.626C132.056 42.918 134.678 43.564 137.718 43.564C140.34 43.564 142.639 43.07 144.615 42.082C146.591 41.056 148.168 39.726 149.346 38.092H151.512C150.182 40.296 148.339 42.063 145.983 43.393C143.627 44.685 140.872 45.331 137.718 45.331ZM137.718 49.093C134.678 49.093 131.923 48.58 129.453 47.554C127.021 46.49 124.912 45.046 123.126 43.222C121.378 41.398 120.029 39.289 119.079 36.895C118.167 34.463 117.711 31.86 117.711 29.086C117.711 26.312 118.167 23.728 119.079 21.334C120.029 18.902 121.378 16.774 123.126 14.95C124.912 13.088 127.021 11.644 129.453 10.618C131.923 9.592 134.678 9.079 137.718 9.079C141.632 9.079 145.052 9.934 147.978 11.644C150.942 13.316 153.241 15.539 154.875 18.313L153.393 19.282C151.873 16.736 149.783 14.703 147.123 13.183C144.463 11.625 141.328 10.846 137.718 10.846C133.994 10.846 130.745 11.663 127.971 13.297C125.235 14.931 123.126 17.135 121.644 19.909C120.162 22.645 119.421 25.704 119.421 29.086C119.421 32.43 120.162 35.489 121.644 38.263C123.126 41.037 125.235 43.241 127.971 44.875C130.745 46.509 133.994 47.326 137.718 47.326C141.48 47.326 144.748 46.49 147.522 44.818C150.296 43.108 152.405 40.866 153.849 38.092H155.787C154.267 41.36 151.949 44.02 148.833 46.072C145.717 48.086 142.012 49.093 137.718 49.093Z" fill="#880088" shape-rendering="crispEdges"/>
<path d="M13.4267 52H12.4267V53H13.4267V52ZM13.4267 6.172V5.172H12.4267V6.172H13.4267ZM15.1367 6.172H16.1367V5.172H15.1367V6.172ZM15.1367 52V53H16.1367V52H15.1367ZM5.90273 52H4.90273V53H5.90273V52ZM5.90273 6.172V5.172H4.90273V6.172H5.90273ZM7.61273 6.172H8.61273V5.172H7.61273V6.172ZM7.61273 52V53H8.61273V52H7.61273ZM9.66473 52H8.66473V53H9.66473V52ZM9.66473 6.172V5.172H8.66473V6.172H9.66473ZM11.3747 6.172H12.3747V5.172H11.3747V6.172ZM11.3747 52V53H12.3747V52H11.3747ZM13.4267 52H14.4267V6.172H13.4267H12.4267V52H13.4267ZM13.4267 6.172V7.172H15.1367V6.172V5.172H13.4267V6.172ZM15.1367 6.172H14.1367V52H15.1367H16.1367V6.172H15.1367ZM15.1367 52V51H13.4267V52V53H15.1367V52ZM5.90273 52H6.90273V6.172H5.90273H4.90273V52H5.90273ZM5.90273 6.172V7.172H7.61273V6.172V5.172H5.90273V6.172ZM7.61273 6.172H6.61273V52H7.61273H8.61273V6.172H7.61273ZM7.61273 52V51H5.90273V52V53H7.61273V52ZM9.66473 52H10.6647V6.172H9.66473H8.66473V52H9.66473ZM9.66473 6.172V7.172H11.3747V6.172V5.172H9.66473V6.172ZM11.3747 6.172H10.3747V52H11.3747H12.3747V6.172H11.3747ZM11.3747 52V51H9.66473V52V53H11.3747V52ZM28.0947 52H27.0947V53H28.0947V52ZM28.0947 6.172V5.172H27.0947V6.172H28.0947ZM29.8047 6.172H30.8047V5.172H29.8047V6.172ZM29.8047 52V53H30.8047V52H29.8047ZM20.5707 52H19.5707V53H20.5707V52ZM20.5707 6.172V5.172H19.5707V6.172H20.5707ZM22.2807 6.172H23.2807V5.172H22.2807V6.172ZM22.2807 52V53H23.2807V52H22.2807ZM24.3327 52H23.3327V53H24.3327V52ZM24.3327 6.172V5.172H23.3327V6.172H24.3327ZM26.0427 6.172H27.0427V5.172H26.0427V6.172ZM26.0427 52V53H27.0427V52H26.0427ZM64.9737 52H63.9737V53H64.9737V52ZM64.9737 6.172V5.172H63.9737V6.172H64.9737ZM66.6837 6.172H67.6837V5.172H66.6837V6.172ZM66.6837 52V53H67.6837V52H66.6837ZM57.4497 52H56.4497V53H57.4497V52ZM57.4497 6.172V5.172H56.4497V6.172H57.4497ZM59.1597 6.172H60.1597V5.172H59.1597V6.172ZM59.1597 52V53H60.1597V52H59.1597ZM61.2117 52H60.2117V53H61.2117V52ZM61.2117 6.172V5.172H60.2117V6.172H61.2117ZM62.9217 6.172H63.9217V5.172H62.9217V6.172ZM62.9217 52V53H63.9217V52H62.9217ZM45.7647 25.552L44.9327 26.1067L45.7506 27.3336L46.5879 26.1198L45.7647 25.552ZM44.7387 24.013L43.9156 23.4451L43.5304 24.0033L43.9067 24.5677L44.7387 24.013ZM55.3977 8.566H56.3977V5.35607L54.5746 7.99805L55.3977 8.566ZM55.3977 11.587L56.2209 12.1548L56.3977 11.8984V11.587H55.3977ZM48.0447 35.413L47.2253 35.9862L48.0269 37.1322L48.8521 36.003L48.0447 35.413ZM31.8567 12.271H30.8567V12.586L31.0373 12.8442L31.8567 12.271ZM31.8567 9.364L32.6748 8.78888L30.8567 6.20278V9.364H31.8567ZM49.1277 33.931L49.9351 34.521L50.358 33.9423L49.9458 33.3559L49.1277 33.931ZM48.1017 28.858L47.2697 29.4127L48.0819 30.631L48.9211 29.4312L48.1017 28.858ZM47.0757 27.319L46.2572 26.7445L45.8642 27.3045L46.2437 27.8737L47.0757 27.319ZM55.3977 15.463H56.3977V12.2978L54.5792 14.8885L55.3977 15.463ZM55.3977 18.427L56.2171 19.0002L56.3977 18.742V18.427H55.3977ZM45.7647 38.776L44.9459 39.3501L45.7855 40.5476L46.5968 39.3307L45.7647 38.776ZM31.8567 18.94H30.8567V19.2556L31.0379 19.5141L31.8567 18.94ZM31.8567 15.919L32.6757 15.3452L30.8567 12.7486V15.919H31.8567ZM46.7907 37.237L47.6228 37.7917L48.0019 37.223L47.6097 36.6632L46.7907 37.237ZM50.3817 32.107L49.5595 32.6762L50.3748 33.8539L51.1994 32.6827L50.3817 32.107ZM49.3557 30.625L48.5372 30.0504L48.1367 30.621L48.5335 31.1942L49.3557 30.625ZM55.3977 22.018H56.3977V18.853L54.5792 21.4434L55.3977 22.018ZM55.3977 24.982L56.2154 25.5577L56.3977 25.2987V24.982H55.3977ZM43.4847 42.025L42.6668 42.6004L43.4912 43.7724L44.3069 42.5942L43.4847 42.025ZM31.8567 25.495H30.8567V25.8115L31.0388 26.0704L31.8567 25.495ZM31.8567 22.474L32.6758 21.9004L30.8567 19.3028V22.474H31.8567ZM44.5107 40.543L45.3329 41.1122L45.7292 40.5397L45.3298 39.9694L44.5107 40.543ZM28.0947 52H29.0947V6.172H28.0947H27.0947V52H28.0947ZM28.0947 6.172V7.172H29.8047V6.172V5.172H28.0947V6.172ZM29.8047 6.172H28.8047V52H29.8047H30.8047V6.172H29.8047ZM29.8047 52V51H28.0947V52V53H29.8047V52ZM20.5707 52H21.5707V6.172H20.5707H19.5707V52H20.5707ZM20.5707 6.172V7.172H22.2807V6.172V5.172H20.5707V6.172ZM22.2807 6.172H21.2807V52H22.2807H23.2807V6.172H22.2807ZM22.2807 52V51H20.5707V52V53H22.2807V52ZM24.3327 52H25.3327V6.172H24.3327H23.3327V52H24.3327ZM24.3327 6.172V7.172H26.0427V6.172V5.172H24.3327V6.172ZM26.0427 6.172H25.0427V52H26.0427H27.0427V6.172H26.0427ZM26.0427 52V51H24.3327V52V53H26.0427V52ZM64.9737 52H65.9737V6.172H64.9737H63.9737V52H64.9737ZM64.9737 6.172V7.172H66.6837V6.172V5.172H64.9737V6.172ZM66.6837 6.172H65.6837V52H66.6837H67.6837V6.172H66.6837ZM66.6837 52V51H64.9737V52V53H66.6837V52ZM57.4497 52H58.4497V6.172H57.4497H56.4497V52H57.4497ZM57.4497 6.172V7.172H59.1597V6.172V5.172H57.4497V6.172ZM59.1597 6.172H58.1597V52H59.1597H60.1597V6.172H59.1597ZM59.1597 52V51H57.4497V52V53H59.1597V52ZM61.2117 52H62.2117V6.172H61.2117H60.2117V52H61.2117ZM61.2117 6.172V7.172H62.9217V6.172V5.172H61.2117V6.172ZM62.9217 6.172H61.9217V52H62.9217H63.9217V6.172H62.9217ZM62.9217 52V51H61.2117V52V53H62.9217V52ZM45.7647 25.552L46.5968 24.9973L45.5708 23.4583L44.7387 24.013L43.9067 24.5677L44.9327 26.1067L45.7647 25.552ZM44.7387 24.013L45.5618 24.5809L56.2208 9.13394L55.3977 8.566L54.5746 7.99805L43.9156 23.4451L44.7387 24.013ZM55.3977 8.566H54.3977V11.587H55.3977H56.3977V8.566H55.3977ZM55.3977 11.587L54.5745 11.0192L44.9415 24.9842L45.7647 25.552L46.5879 26.1198L56.2209 12.1548L55.3977 11.587ZM48.0447 35.413L48.8641 34.8398L32.6761 11.6978L31.8567 12.271L31.0373 12.8442L47.2253 35.9862L48.0447 35.413ZM31.8567 12.271H32.8567V9.364H31.8567H30.8567V12.271H31.8567ZM31.8567 9.364L31.0386 9.93912L48.3096 34.5061L49.1277 33.931L49.9458 33.3559L32.6748 8.78888L31.8567 9.364ZM49.1277 33.931L48.3203 33.341L47.2373 34.823L48.0447 35.413L48.8521 36.003L49.9351 34.521L49.1277 33.931ZM48.1017 28.858L48.9338 28.3033L47.9078 26.7643L47.0757 27.319L46.2437 27.8737L47.2697 29.4127L48.1017 28.858ZM47.0757 27.319L47.8942 27.8935L56.2162 16.0375L55.3977 15.463L54.5792 14.8885L46.2572 26.7445L47.0757 27.319ZM55.3977 15.463H54.3977V18.427H55.3977H56.3977V15.463H55.3977ZM55.3977 18.427L54.5783 17.8538L47.2823 28.2848L48.1017 28.858L48.9211 29.4312L56.2171 19.0002L55.3977 18.427ZM45.7647 38.776L46.5835 38.2019L32.6755 18.3659L31.8567 18.94L31.0379 19.5141L44.9459 39.3501L45.7647 38.776ZM31.8567 18.94H32.8567V15.919H31.8567H30.8567V18.94H31.8567ZM31.8567 15.919L31.0377 16.4928L45.9717 37.8108L46.7907 37.237L47.6097 36.6632L32.6757 15.3452L31.8567 15.919ZM46.7907 37.237L45.9587 36.6823L44.9327 38.2213L45.7647 38.776L46.5968 39.3307L47.6228 37.7917L46.7907 37.237ZM50.3817 32.107L51.2039 31.5378L50.1779 30.0558L49.3557 30.625L48.5335 31.1942L49.5595 32.6762L50.3817 32.107ZM49.3557 30.625L50.1742 31.1996L56.2162 22.5926L55.3977 22.018L54.5792 21.4434L48.5372 30.0504L49.3557 30.625ZM55.3977 22.018H54.3977V24.982H55.3977H56.3977V22.018H55.3977ZM55.3977 24.982L54.58 24.4063L49.564 31.5313L50.3817 32.107L51.1994 32.6827L56.2154 25.5577L55.3977 24.982ZM43.4847 42.025L44.3026 41.4496L32.6746 24.9196L31.8567 25.495L31.0388 26.0704L42.6668 42.6004L43.4847 42.025ZM31.8567 25.495H32.8567V22.474H31.8567H30.8567V25.495H31.8567ZM31.8567 22.474L31.0376 23.0476L43.6916 41.1166L44.5107 40.543L45.3298 39.9694L32.6758 21.9004L31.8567 22.474ZM44.5107 40.543L43.6885 39.9738L42.6625 41.4558L43.4847 42.025L44.3069 42.5942L45.3329 41.1122L44.5107 40.543ZM78.4139 52L77.4736 51.6597L76.9885 53H78.4139V52ZM95.0009 6.172V5.172H94.2994L94.0606 5.83166L95.0009 6.172ZM96.8249 6.172L97.7653 6.51233L98.2504 5.172H96.8249V6.172ZM80.2379 52V53H80.9395L81.1782 52.3403L80.2379 52ZM70.4339 52L69.4936 51.6597L69.0085 53H70.4339V52ZM87.0209 6.172V5.172H86.3194L86.0806 5.83166L87.0209 6.172ZM88.7879 6.172L89.7286 6.5113L90.2117 5.172H88.7879V6.172ZM72.2579 52V53H72.9603L73.1986 52.3393L72.2579 52ZM74.4239 52L73.4833 51.6607L73.0002 53H74.4239V52ZM90.9539 6.172V5.172H90.2516L90.0133 5.8327L90.9539 6.172ZM92.8349 6.172L93.7753 6.51233L94.2604 5.172H92.8349V6.172ZM76.2479 52V53H76.9495L77.1883 52.3403L76.2479 52ZM111.816 52L110.876 52.3404L111.114 53H111.816V52ZM96.9389 10.903L95.9967 10.568L95.8765 10.906L95.9987 11.2434L96.9389 10.903ZM97.8509 8.338L98.7913 7.99793L97.843 5.37539L96.9087 8.00299L97.8509 8.338ZM113.64 52V53H115.065L114.58 51.6599L113.64 52ZM107.826 52L106.885 52.3397L107.124 53H107.826V52ZM95.0009 16.489L94.0502 16.179L93.9437 16.5056L94.0604 16.8287L95.0009 16.489ZM95.8559 13.867L96.7963 13.5268L95.8069 10.7917L94.9052 13.557L95.8559 13.867ZM109.65 52V53H111.075L110.59 51.6598L109.65 52ZM103.836 52L102.895 52.3397L103.134 53H103.836V52ZM93.0059 22.018L92.0637 21.683L91.9437 22.0207L92.0654 22.3577L93.0059 22.018ZM93.9179 19.453L94.8586 19.1136L93.9111 16.4873L92.9757 19.118L93.9179 19.453ZM105.66 52V53H107.084L106.601 51.6606L105.66 52ZM87.7049 36.838L86.7661 36.4937L86.2732 37.838H87.7049V36.838ZM88.3319 35.128V34.128H87.6335L87.3931 34.7837L88.3319 35.128ZM95.8559 35.128L96.7948 34.7837L96.5544 34.128H95.8559V35.128ZM96.4829 36.838V37.838H97.9147L97.4218 36.4937L96.4829 36.838ZM86.3369 40.657L85.3981 40.3127L84.9052 41.657H86.3369V40.657ZM86.9639 38.947V37.947H86.2655L86.0251 38.6027L86.9639 38.947ZM97.2239 38.947L98.1628 38.6027L97.9224 37.947H97.2239V38.947ZM97.8509 40.657V41.657H99.2827L98.7898 40.3127L97.8509 40.657ZM84.9689 44.419L84.0301 44.0747L83.5372 45.419H84.9689V44.419ZM85.5959 42.709V41.709H84.8975L84.6571 42.3647L85.5959 42.709ZM98.5919 42.709L99.5308 42.3647L99.2904 41.709H98.5919V42.709ZM99.2189 44.419V45.419H100.651L100.158 44.0747L99.2189 44.419ZM78.4139 52L79.3543 52.3403L95.9413 6.51233L95.0009 6.172L94.0606 5.83166L77.4736 51.6597L78.4139 52ZM95.0009 6.172V7.172H96.8249V6.172V5.172H95.0009V6.172ZM96.8249 6.172L95.8846 5.83166L79.2976 51.6597L80.2379 52L81.1782 52.3403L97.7653 6.51233L96.8249 6.172ZM80.2379 52V51H78.4139V52V53H80.2379V52ZM70.4339 52L71.3742 52.3403L87.9613 6.51233L87.0209 6.172L86.0806 5.83166L69.4936 51.6597L70.4339 52ZM87.0209 6.172V7.172H88.7879V6.172V5.172H87.0209V6.172ZM88.7879 6.172L87.8473 5.8327L71.3173 51.6607L72.2579 52L73.1986 52.3393L89.7286 6.5113L88.7879 6.172ZM72.2579 52V51H70.4339V52V53H72.2579V52ZM74.4239 52L75.3646 52.3393L91.8946 6.5113L90.9539 6.172L90.0133 5.8327L73.4833 51.6607L74.4239 52ZM90.9539 6.172V7.172H92.8349V6.172V5.172H90.9539V6.172ZM92.8349 6.172L91.8946 5.83166L75.3076 51.6597L76.2479 52L77.1883 52.3403L93.7753 6.51233L92.8349 6.172ZM76.2479 52V51H74.4239V52V53H76.2479V52ZM111.816 52L112.756 51.6596L97.8792 10.5626L96.9389 10.903L95.9987 11.2434L110.876 52.3404L111.816 52ZM96.9389 10.903L97.8812 11.238L98.7932 8.67301L97.8509 8.338L96.9087 8.00299L95.9967 10.568L96.9389 10.903ZM97.8509 8.338L96.9105 8.67806L112.7 52.3401L113.64 52L114.58 51.6599L98.7913 7.99793L97.8509 8.338ZM113.64 52V51H111.816V52V53H113.64V52ZM107.826 52L108.766 51.6603L95.9415 16.1493L95.0009 16.489L94.0604 16.8287L106.885 52.3397L107.826 52ZM95.0009 16.489L95.9517 16.799L96.8067 14.177L95.8559 13.867L94.9052 13.557L94.0502 16.179L95.0009 16.489ZM95.8559 13.867L94.9156 14.2072L108.71 52.3402L109.65 52L110.59 51.6598L96.7963 13.5268L95.8559 13.867ZM109.65 52V51H107.826V52V53H109.65V52ZM103.836 52L104.776 51.6603L93.9465 21.6783L93.0059 22.018L92.0654 22.3577L102.895 52.3397L103.836 52ZM93.0059 22.018L93.9482 22.353L94.8602 19.788L93.9179 19.453L92.9757 19.118L92.0637 21.683L93.0059 22.018ZM93.9179 19.453L92.9773 19.7924L104.719 52.3394L105.66 52L106.601 51.6606L94.8586 19.1136L93.9179 19.453ZM105.66 52V51H103.836V52V53H105.66V52ZM87.7049 36.838L88.6438 37.1823L89.2708 35.4723L88.3319 35.128L87.3931 34.7837L86.7661 36.4937L87.7049 36.838ZM88.3319 35.128V36.128H95.8559V35.128V34.128H88.3319V35.128ZM95.8559 35.128L94.9171 35.4723L95.5441 37.1823L96.4829 36.838L97.4218 36.4937L96.7948 34.7837L95.8559 35.128ZM96.4829 36.838V35.838H87.7049V36.838V37.838H96.4829V36.838ZM86.3369 40.657L87.2758 41.0013L87.9028 39.2913L86.9639 38.947L86.0251 38.6027L85.3981 40.3127L86.3369 40.657ZM86.9639 38.947V39.947H97.2239V38.947V37.947H86.9639V38.947ZM97.2239 38.947L96.2851 39.2913L96.9121 41.0013L97.8509 40.657L98.7898 40.3127L98.1628 38.6027L97.2239 38.947ZM97.8509 40.657V39.657H86.3369V40.657V41.657H97.8509V40.657ZM84.9689 44.419L85.9078 44.7633L86.5348 43.0533L85.5959 42.709L84.6571 42.3647L84.0301 44.0747L84.9689 44.419ZM85.5959 42.709V43.709H98.5919V42.709V41.709H85.5959V42.709ZM98.5919 42.709L97.6531 43.0533L98.2801 44.7633L99.2189 44.419L100.158 44.0747L99.5308 42.3647L98.5919 42.709ZM99.2189 44.419V43.419H84.9689V44.419V45.419H99.2189V44.419ZM137.832 28.63H136.832V29.63H137.832V28.63ZM137.832 26.92V25.92H136.832V26.92H137.832ZM160.233 26.92H161.233V25.92H160.233V26.92ZM160.233 28.63V29.63H161.233V28.63H160.233ZM137.832 32.392H136.832V33.392H137.832V32.392ZM137.832 30.682V29.682H136.832V30.682H137.832ZM160.233 30.682H161.233V29.682H160.233V30.682ZM160.233 32.392V33.392H161.233V32.392H160.233ZM137.832 36.154H136.832V37.154H137.832V36.154ZM137.832 34.444V33.444H136.832V34.444H137.832ZM160.233 34.444H161.233V33.444H160.233V34.444ZM160.233 36.154V37.154H161.233V36.154H160.233ZM127.971 51.031L127.573 51.9483L127.58 51.9514L127.587 51.9544L127.971 51.031ZM120.504 45.901L121.224 45.2066L121.224 45.2066L120.504 45.901ZM115.659 38.377L114.729 38.7442L114.731 38.7484L115.659 38.377ZM115.659 19.852L116.588 20.2234L116.589 20.2192L115.659 19.852ZM120.504 12.271L121.224 12.9654L121.224 12.9654L120.504 12.271ZM127.971 7.198L128.359 8.11965L128.365 8.11714L127.971 7.198ZM149.802 8.338L149.303 9.20453L149.31 9.20856L149.802 8.338ZM158.01 16.261L158.558 17.098L159.361 16.5724L158.869 15.748L158.01 16.261ZM156.528 17.23L155.668 17.7398L156.201 18.6389L157.076 18.067L156.528 17.23ZM148.947 9.82L148.443 10.6838L148.448 10.6864L148.947 9.82ZM128.655 8.737L128.266 7.81585L128.266 7.81585L128.655 8.737ZM121.701 13.468L120.981 12.7746L120.981 12.7746L121.701 13.468ZM117.198 20.536L116.268 20.1691L116.265 20.1761L117.198 20.536ZM117.198 37.693L116.264 38.0484L116.267 38.0564L116.27 38.0644L117.198 37.693ZM121.701 44.704L122.422 44.0106L122.422 44.0106L121.701 44.704ZM146.61 49.492L146.228 48.5681L146.61 49.492ZM153.507 44.875L154.221 45.5752L154.221 45.5752L153.507 44.875ZM158.01 38.092V37.092H157.344L157.088 37.7064L158.01 38.092ZM159.891 38.092L160.826 38.4485L161.343 37.092H159.891V38.092ZM155.046 45.787L154.321 45.0986L154.321 45.0989L155.046 45.787ZM147.522 50.974L147.128 50.0549L147.128 50.0549L147.522 50.974ZM128.997 43.165L128.477 44.019L128.487 44.0249L128.997 43.165ZM123.411 37.237L124.297 36.7735L124.297 36.7735L123.411 37.237ZM123.411 20.935L124.294 21.4042L124.297 21.3985L123.411 20.935ZM128.997 15.064L129.508 15.9239L129.518 15.9179L128.997 15.064ZM146.154 14.95L145.642 15.8087L145.65 15.8136L145.658 15.8182L146.154 14.95ZM151.683 20.422L152.231 21.259L153.016 20.7454L152.553 19.929L151.683 20.422ZM150.201 21.391L149.327 21.8766L149.849 22.8161L150.749 22.228L150.201 21.391ZM145.299 16.489L144.792 17.3506L144.803 17.3572L145.299 16.489ZM129.852 16.603L130.365 17.4618L130.369 17.4592L129.852 16.603ZM124.893 21.847L125.778 22.3128L125.781 22.3064L124.893 21.847ZM124.893 36.382L124.005 36.8414L124.008 36.8477L124.893 36.382ZM129.852 41.626L129.329 42.4782L129.338 42.4835L129.347 42.4887L129.852 41.626ZM144.615 42.082L145.062 42.9764L145.069 42.973L145.076 42.9695L144.615 42.082ZM149.346 38.092V37.092H148.834L148.535 37.5072L149.346 38.092ZM151.512 38.092L152.368 38.6087L153.284 37.092H151.512V38.092ZM145.983 43.393L146.464 44.2699L146.475 44.2638L145.983 43.393ZM129.453 47.554L129.052 48.4702L129.061 48.4739L129.07 48.4775L129.453 47.554ZM123.126 43.222L122.404 43.9139L122.412 43.9216L123.126 43.222ZM119.079 36.895L118.143 37.2461L118.146 37.255L118.15 37.2638L119.079 36.895ZM119.079 21.334L118.148 20.9701L118.145 20.978L119.079 21.334ZM123.126 14.95L122.405 14.2578L122.404 14.2581L123.126 14.95ZM129.453 10.618L129.07 9.69449L129.065 9.69663L129.453 10.618ZM147.978 11.644L147.474 12.5074L147.48 12.5112L147.487 12.515L147.978 11.644ZM154.875 18.313L155.423 19.15L156.221 18.6277L155.737 17.8055L154.875 18.313ZM153.393 19.282L152.535 19.7946L153.069 20.689L153.941 20.119L153.393 19.282ZM147.123 13.183L146.618 14.0459L146.627 14.0512L147.123 13.183ZM127.971 13.297L127.464 12.4354L127.459 12.4385L127.971 13.297ZM121.644 19.909L122.524 20.3853L122.526 20.3802L121.644 19.909ZM127.971 44.875L127.459 45.7336L127.464 45.7366L127.971 44.875ZM147.522 44.818L148.039 45.6745L148.047 45.6693L147.522 44.818ZM153.849 38.092V37.092H153.242L152.962 37.6303L153.849 38.092ZM155.787 38.092L156.694 38.5137L157.355 37.092H155.787V38.092ZM148.833 46.072L149.376 46.9119L149.383 46.9072L148.833 46.072ZM137.832 28.63H138.832V26.92H137.832H136.832V28.63H137.832ZM137.832 26.92V27.92H160.233V26.92V25.92H137.832V26.92ZM160.233 26.92H159.233V28.63H160.233H161.233V26.92H160.233ZM160.233 28.63V27.63H137.832V28.63V29.63H160.233V28.63ZM137.832 32.392H138.832V30.682H137.832H136.832V32.392H137.832ZM137.832 30.682V31.682H160.233V30.682V29.682H137.832V30.682ZM160.233 30.682H159.233V32.392H160.233H161.233V30.682H160.233ZM160.233 32.392V31.392H137.832V32.392V33.392H160.233V32.392ZM137.832 36.154H138.832V34.444H137.832H136.832V36.154H137.832ZM137.832 34.444V35.444H160.233V34.444V33.444H137.832V34.444ZM160.233 34.444H159.233V36.154H160.233H161.233V34.444H160.233ZM160.233 36.154V35.154H137.832V36.154V37.154H160.233V36.154ZM137.718 52.855V51.855C134.261 51.855 131.145 51.267 128.355 50.1076L127.971 51.031L127.587 51.9544C130.65 53.227 134.031 53.855 137.718 53.855V52.855ZM127.971 51.031L128.37 50.1137C125.597 48.9097 123.218 47.2736 121.224 45.2066L120.504 45.901L119.785 46.5954C121.97 48.8604 124.57 50.6443 127.573 51.9483L127.971 51.031ZM120.504 45.901L121.224 45.2066C119.226 43.1356 117.681 40.7379 116.588 38.0056L115.659 38.377L114.731 38.7484C115.918 41.7161 117.603 44.3344 119.785 46.5954L120.504 45.901ZM115.659 38.377L116.589 38.0098C115.498 35.2462 114.949 32.2745 114.949 29.086H113.949H112.949C112.949 32.5095 113.54 35.7318 114.729 38.7442L115.659 38.377ZM113.949 29.086H114.949C114.949 25.8973 115.499 22.9464 116.588 20.2234L115.659 19.852L114.731 19.4806C113.54 22.4576 112.949 25.6627 112.949 29.086H113.949ZM115.659 19.852L116.589 20.2192C117.683 17.449 119.228 15.0341 121.224 12.9654L120.504 12.271L119.785 11.5766C117.601 13.8398 115.916 16.479 114.729 19.4848L115.659 19.852ZM120.504 12.271L121.224 12.9654C123.216 10.9008 125.591 9.28531 128.359 8.11963L127.971 7.198L127.583 6.27636C124.576 7.54269 121.973 9.30921 119.785 11.5766L120.504 12.271ZM127.971 7.198L128.365 8.11714C131.152 6.92264 134.265 6.317 137.718 6.317V5.317V4.317C134.027 4.317 130.642 4.96536 127.577 6.27885L127.971 7.198ZM137.718 5.317V6.317C142.126 6.317 145.978 7.28888 149.303 9.2045L149.802 8.338L150.301 7.4715C146.635 5.35912 142.43 4.317 137.718 4.317V5.317ZM149.802 8.338L149.31 9.20856C152.662 11.103 155.269 13.6235 157.152 16.774L158.01 16.261L158.869 15.748C156.8 12.2865 153.935 9.52502 150.294 7.46744L149.802 8.338ZM158.01 16.261L157.463 15.424L155.981 16.393L156.528 17.23L157.076 18.067L158.558 17.098L158.01 16.261ZM156.528 17.23L157.389 16.7202C155.473 13.488 152.819 10.8977 149.447 8.95364L148.947 9.82L148.448 10.6864C151.535 12.4663 153.935 14.816 155.668 17.7398L156.528 17.23ZM148.947 9.82L149.451 8.95622C146.083 6.99144 142.16 6.027 137.718 6.027V7.027V8.027C141.864 8.027 145.428 8.92456 148.443 10.6838L148.947 9.82ZM137.718 7.027V6.027C134.259 6.027 131.103 6.61695 128.266 7.81585L128.655 8.737L129.044 9.65814C131.603 8.57705 134.489 8.027 137.718 8.027V7.027ZM128.655 8.737L128.266 7.81585C125.449 9.00598 123.017 10.6584 120.981 12.7746L121.701 13.468L122.422 14.1614C124.261 12.2496 126.465 10.748 129.044 9.65814L128.655 8.737ZM121.701 13.468L120.981 12.7746C118.949 14.8863 117.378 17.3543 116.268 20.1691L117.198 20.536L118.129 20.9029C119.146 18.3217 120.578 16.0777 122.422 14.1614L121.701 13.468ZM117.198 20.536L116.265 20.1761C115.192 22.9584 114.659 25.9312 114.659 29.086H115.659H116.659C116.659 26.1608 117.152 23.4336 118.131 20.8959L117.198 20.536ZM115.659 29.086H114.659C114.659 32.2409 115.192 35.231 116.264 38.0484L117.198 37.693L118.133 37.3376C117.152 34.759 116.659 32.0111 116.659 29.086H115.659ZM117.198 37.693L116.27 38.0644C117.38 40.8411 118.951 43.2881 120.981 45.3974L121.701 44.704L122.422 44.0106C120.576 42.0919 119.144 39.8649 118.127 37.3216L117.198 37.693ZM121.701 44.704L120.981 45.3974C123.017 47.5136 125.449 49.166 128.266 50.3561L128.655 49.435L129.044 48.5139C126.465 47.424 124.261 45.9224 122.422 44.0106L121.701 44.704ZM128.655 49.435L128.266 50.3561C131.103 51.555 134.259 52.145 137.718 52.145V51.145V50.145C134.489 50.145 131.603 49.595 129.044 48.5139L128.655 49.435ZM137.718 51.145V52.145C141.1 52.145 144.196 51.5745 146.993 50.4159L146.61 49.492L146.228 48.5681C143.704 49.6135 140.873 50.145 137.718 50.145V51.145ZM146.61 49.492L146.993 50.4159C149.772 49.2645 152.185 47.6512 154.221 45.5752L153.507 44.875L152.793 44.1748C150.953 46.0508 148.768 47.5155 146.228 48.5681L146.61 49.492ZM153.507 44.875L154.221 45.5752C156.248 43.5088 157.82 41.1411 158.933 38.4776L158.01 38.092L157.088 37.7064C156.073 40.1349 154.643 42.2892 152.793 44.1748L153.507 44.875ZM158.01 38.092V39.092H159.891V38.092V37.092H158.01V38.092ZM159.891 38.092L158.957 37.7355C157.902 40.5001 156.358 42.9523 154.321 45.0986L155.046 45.787L155.772 46.4754C157.99 44.1377 159.676 41.4599 160.826 38.4485L159.891 38.092ZM155.046 45.787L154.321 45.0989C152.329 47.1994 149.935 48.8519 147.128 50.0549L147.522 50.974L147.916 51.8931C150.961 50.5881 153.584 48.7826 155.772 46.4751L155.046 45.787ZM147.522 50.974L147.128 50.0549C144.342 51.2488 141.211 51.855 137.718 51.855V52.855V53.855C141.446 53.855 144.85 53.2072 147.916 51.8931L147.522 50.974ZM137.718 45.331V44.331C134.481 44.331 131.758 43.6409 129.508 42.3051L128.997 43.165L128.487 44.0249C131.101 45.5771 134.192 46.331 137.718 46.331V45.331ZM128.997 43.165L129.518 42.3111C127.237 40.9214 125.503 39.0789 124.297 36.7735L123.411 37.237L122.525 37.7005C123.903 40.3351 125.893 42.4446 128.477 44.0189L128.997 43.165ZM123.411 37.237L124.297 36.7735C123.085 34.4556 122.473 31.8991 122.473 29.086H121.473H120.473C120.473 32.2009 121.154 35.0784 122.525 37.7005L123.411 37.237ZM121.473 29.086H122.473C122.473 26.2325 123.086 23.6789 124.294 21.4042L123.411 20.935L122.528 20.4658C121.153 23.0551 120.473 25.9355 120.473 29.086H121.473ZM123.411 20.935L124.297 21.3985C125.502 19.0954 127.233 17.2746 129.508 15.9239L128.997 15.064L128.487 14.2041C125.898 15.7414 123.904 17.8346 122.525 20.4715L123.411 20.935ZM128.997 15.064L129.518 15.9179C131.766 14.5481 134.485 13.841 137.718 13.841V12.841V11.841C134.187 11.841 131.093 12.6159 128.477 14.2101L128.997 15.064ZM137.718 12.841V13.841C140.841 13.841 143.468 14.5115 145.642 15.8087L146.154 14.95L146.667 14.0913C144.128 12.5765 141.132 11.841 137.718 11.841V12.841ZM146.154 14.95L145.658 15.8182C147.905 17.1019 149.615 18.7997 150.813 20.915L151.683 20.422L152.553 19.929C151.168 17.4843 149.192 15.5341 146.65 14.0818L146.154 14.95ZM151.683 20.422L151.136 19.585L149.654 20.554L150.201 21.391L150.749 22.228L152.231 21.259L151.683 20.422ZM150.201 21.391L151.075 20.9054C149.843 18.6865 148.075 16.9232 145.795 15.6208L145.299 16.489L144.803 17.3572C146.78 18.4868 148.28 19.9915 149.327 21.8766L150.201 21.391ZM145.299 16.489L145.807 15.6275C143.499 14.2673 140.79 13.608 137.718 13.608V14.608V15.608C140.499 15.608 142.844 16.2027 144.792 17.3505L145.299 16.489ZM137.718 14.608V13.608C134.529 13.608 131.722 14.3069 129.336 15.7468L129.852 16.603L130.369 17.4592C132.391 16.2391 134.827 15.608 137.718 15.608V14.608ZM129.852 16.603L129.34 15.7442C127.017 17.13 125.232 19.0152 124.005 21.3876L124.893 21.847L125.781 22.3064C126.834 20.2708 128.356 18.66 130.365 17.4618L129.852 16.603ZM124.893 21.847L124.008 21.3813C122.786 23.7031 122.183 26.2781 122.183 29.086H123.183H124.183C124.183 26.5739 124.72 24.3229 125.778 22.3127L124.893 21.847ZM123.183 29.086H122.183C122.183 31.8941 122.786 34.4853 124.005 36.8414L124.893 36.382L125.781 35.9226C124.72 33.8707 124.183 31.5979 124.183 29.086H123.183ZM124.893 36.382L124.008 36.8477C125.235 39.179 127.016 41.058 129.329 42.4782L129.852 41.626L130.376 40.7738C128.356 39.534 126.831 37.917 125.778 35.9163L124.893 36.382ZM129.852 41.626L129.347 42.4887C131.731 43.8863 134.534 44.564 137.718 44.564V43.564V42.564C134.822 42.564 132.382 41.9497 130.358 40.7633L129.852 41.626ZM137.718 43.564V44.564C140.467 44.564 142.924 44.0457 145.062 42.9764L144.615 42.082L144.168 41.1876C142.355 42.0943 140.214 42.564 137.718 42.564V43.564ZM144.615 42.082L145.076 42.9695C147.176 41.8791 148.879 40.4506 150.157 38.6768L149.346 38.092L148.535 37.5072C147.458 39.0014 146.006 40.2329 144.154 41.1945L144.615 42.082ZM149.346 38.092V39.092H151.512V38.092V37.092H149.346V38.092ZM151.512 38.092L150.656 37.5753C149.42 39.6242 147.706 41.2724 145.492 42.5222L145.983 43.393L146.475 44.2638C148.973 42.8536 150.945 40.9678 152.368 38.6087L151.512 38.092ZM145.983 43.393L145.502 42.5162C143.318 43.7144 140.733 44.331 137.718 44.331V45.331V46.331C141.011 46.331 143.937 45.6556 146.464 44.2698L145.983 43.393ZM137.718 49.093V48.093C134.792 48.093 132.17 47.5996 129.837 46.6305L129.453 47.554L129.07 48.4775C131.677 49.5604 134.564 50.093 137.718 50.093V49.093ZM129.453 47.554L129.854 46.6378C127.535 45.6232 125.533 44.2511 123.841 42.5224L123.126 43.222L122.412 43.9216C124.291 45.8409 126.508 47.3568 129.052 48.4702L129.453 47.554ZM123.126 43.222L123.848 42.5301C122.191 40.8012 120.912 38.8025 120.009 36.5262L119.079 36.895L118.15 37.2638C119.146 39.7755 120.565 41.9948 122.404 43.9139L123.126 43.222ZM119.079 36.895L120.016 36.5439C119.148 34.2316 118.711 31.7483 118.711 29.086H117.711H116.711C116.711 31.9717 117.186 34.6944 118.143 37.2461L119.079 36.895ZM117.711 29.086H118.711C118.711 26.4235 119.149 23.9612 120.014 21.69L119.079 21.334L118.145 20.978C117.186 23.4948 116.711 26.2005 116.711 29.086H117.711ZM119.079 21.334L120.011 21.6978C120.915 19.3837 122.194 17.3681 123.848 15.6419L123.126 14.95L122.404 14.2581C120.563 16.1798 119.144 18.4203 118.148 20.9701L119.079 21.334ZM123.126 14.95L123.848 15.6422C125.537 13.8808 127.532 12.5137 129.842 11.5394L129.453 10.618L129.065 9.69663C126.51 10.7743 124.287 12.2952 122.405 14.2578L123.126 14.95ZM129.453 10.618L129.837 11.5415C132.17 10.5724 134.792 10.079 137.718 10.079V9.079V8.079C134.564 8.079 131.677 8.61156 129.07 9.6945L129.453 10.618ZM137.718 9.079V10.079C141.483 10.079 144.723 10.8999 147.474 12.5074L147.978 11.644L148.483 10.7806C145.381 8.96808 141.782 8.079 137.718 8.079V9.079ZM147.978 11.644L147.487 12.515C150.307 14.1056 152.474 16.2069 154.014 18.8205L154.875 18.313L155.737 17.8055C154.008 14.8711 151.578 12.5264 148.47 10.773L147.978 11.644ZM154.875 18.313L154.328 17.476L152.846 18.445L153.393 19.282L153.941 20.119L155.423 19.15L154.875 18.313ZM153.393 19.282L154.252 18.7694C152.641 16.0706 150.424 13.9172 147.619 12.3148L147.123 13.183L146.627 14.0512C149.143 15.4888 151.106 17.4014 152.535 19.7946L153.393 19.282ZM147.123 13.183L147.629 12.3201C144.791 10.658 141.475 9.846 137.718 9.846V10.846V11.846C141.181 11.846 144.136 12.592 146.618 14.0459L147.123 13.183ZM137.718 10.846V9.846C133.844 9.846 130.414 10.6974 127.464 12.4354L127.971 13.297L128.479 14.1586C131.076 12.6286 134.144 11.846 137.718 11.846V10.846ZM127.971 13.297L127.459 12.4385C124.569 14.1643 122.331 16.5013 120.762 19.4378L121.644 19.909L122.526 20.3802C123.921 17.7687 125.902 15.6977 128.484 14.1555L127.971 13.297ZM121.644 19.909L120.765 19.4327C119.197 22.3275 118.421 25.5525 118.421 29.086H119.421H120.421C120.421 25.8555 121.128 22.9625 122.524 20.3853L121.644 19.909ZM119.421 29.086H118.421C118.421 32.5837 119.198 35.8061 120.762 38.7342L121.644 38.263L122.526 37.7918C121.127 35.1719 120.421 32.2763 120.421 29.086H119.421ZM121.644 38.263L120.762 38.7342C122.331 41.6707 124.569 44.0077 127.459 45.7335L127.971 44.875L128.484 44.0165C125.902 42.4743 123.921 40.4033 122.526 37.7918L121.644 38.263ZM127.971 44.875L127.464 45.7366C130.414 47.4746 133.844 48.326 137.718 48.326V47.326V46.326C134.144 46.326 131.076 45.5434 128.479 44.0134L127.971 44.875ZM137.718 47.326V48.326C141.632 48.326 145.085 47.4547 148.038 45.6745L147.522 44.818L147.006 43.9615C144.412 45.5253 141.328 46.326 137.718 46.326V47.326ZM147.522 44.818L148.047 45.6693C150.968 43.8687 153.205 41.4948 154.736 38.5537L153.849 38.092L152.962 37.6303C151.605 40.2372 149.625 42.3473 146.998 43.9667L147.522 44.818ZM153.849 38.092V39.092H155.787V38.092V37.092H153.849V38.092ZM155.787 38.092L154.881 37.6703C153.442 40.7639 151.25 43.2831 148.283 45.2368L148.833 46.072L149.383 46.9072C152.648 44.7569 155.093 41.9561 156.694 38.5137L155.787 38.092ZM148.833 46.072L148.29 45.2322C145.36 47.126 141.851 48.093 137.718 48.093V49.093V50.093C142.174 50.093 146.074 49.046 149.376 46.9118L148.833 46.072Z" fill="#880088" fill-opacity="0.16" mask="url(#path-1-outside-1_36_5)"/>
</g>
<path d="M193.52 26.84L196.76 25.92C197.267 25.76 197.813 25.68 198.4 25.68C199.333 25.68 199.8 25.8933 199.8 26.32C199.8 26.72 199.133 27.0533 197.8 27.32C196.467 27.5867 194.92 27.92 193.16 28.32C192.573 30.6133 191.653 32.56 190.4 34.16C189.173 35.7333 187.8 36.96 186.28 37.84C184.787 38.6933 183.813 39.12 183.36 39.12C183.2 39.12 183.12 39.0533 183.12 38.92C183.12 38.7867 183.28 38.6 183.6 38.36C185.387 37.24 186.947 35.8533 188.28 34.2C189.64 32.52 190.613 30.72 191.2 28.8C187.733 29.6267 185.653 30.1867 184.96 30.48C184.293 30.7733 183.72 30.92 183.24 30.92C182.787 30.92 182.28 30.7067 181.72 30.28C181.16 29.8267 180.88 29.5067 180.88 29.32C180.88 29.1333 181.253 29.04 182 29.04C183.44 29.04 186.627 28.4667 191.56 27.32C191.88 25.9867 192.04 25.0667 192.04 24.56C192.04 24.0533 192 23.6533 191.92 23.36C191.653 23.3867 191.32 23.4 190.92 23.4C190.52 23.4 190.067 23.3733 189.56 23.32C189.08 23.9067 188.36 24.6 187.4 25.4C186.44 26.1733 185.827 26.56 185.56 26.56C185.4 26.56 185.32 26.48 185.32 26.32C185.32 26.16 185.467 25.9333 185.76 25.64C187.387 23.9067 188.627 22.1067 189.48 20.24C190.333 18.3467 190.68 17.0933 190.52 16.48C190.467 16.24 190.44 16 190.44 15.76C190.44 15.52 190.627 15.4 191 15.4C191.373 15.4 191.96 15.56 192.76 15.88C193.587 16.2 194 16.5733 194 17C194 17.2133 193.867 17.4533 193.6 17.72C193.36 17.9867 192.827 18.7333 192 19.96C191.173 21.1867 190.627 21.9733 190.36 22.32C191.187 22.2933 192.907 21.7333 195.52 20.64C196.4 20.2933 197.08 20.12 197.56 20.12C198.04 20.12 198.467 20.2133 198.84 20.4C199.24 20.56 199.44 20.7333 199.44 20.92C199.44 21.1067 199.04 21.3333 198.24 21.6L193.8 22.96C194.253 23.2267 194.48 23.4933 194.48 23.76C194.48 24 194.4 24.2667 194.24 24.56C194.107 24.8533 193.867 25.6133 193.52 26.84ZM201.76 23.56C202.907 23.64 204.227 23.5333 205.72 23.24C207.213 22.92 208.227 22.6133 208.76 22.32C209.32 22.0267 209.773 21.88 210.12 21.88C210.493 21.88 211.227 22.1867 212.32 22.8C213.44 23.3867 214 23.88 214 24.28C214 24.4933 213.773 24.7733 213.32 25.12C212.893 25.4667 212.387 26.1067 211.8 27.04C211.24 27.9467 210.96 28.5067 210.96 28.72C210.96 28.9067 211.013 29.08 211.12 29.24C211.253 29.4 211.32 29.5733 211.32 29.76C211.32 30.08 211.187 30.2933 210.92 30.4C210.653 30.48 208.24 30.6933 203.68 31.04C203.653 31.76 203.587 32.24 203.48 32.48C203.4 32.6933 203.253 32.8 203.04 32.8C202.613 32.8 202.32 32.1867 202.16 30.96C201.68 27.44 201.173 25.2933 200.64 24.52C200.347 24.12 200.2 23.8133 200.2 23.6C200.2 23.3867 200.333 23.28 200.6 23.28C200.867 23.28 201.253 23.3733 201.76 23.56ZM203.6 29.88C205.6 29.64 206.947 29.44 207.64 29.28C208.333 29.12 208.76 28.9467 208.92 28.76C209.107 28.5467 209.307 27.9467 209.52 26.96C209.733 25.9467 209.84 25.2533 209.84 24.88C209.84 24.1333 209.4 23.76 208.52 23.76C207.96 23.76 207.107 23.9067 205.96 24.2C204.84 24.4933 203.893 24.64 203.12 24.64C203.2 26.5333 203.36 28.28 203.6 29.88ZM198.44 32.28C198.44 33.2667 198.173 33.76 197.64 33.76C197.293 33.76 196.867 33.5467 196.36 33.12C195.853 32.6933 195.28 32.0933 194.64 31.32C194.027 30.5467 193.72 30.08 193.72 29.92C193.72 29.7333 193.88 29.64 194.2 29.64C194.867 29.64 195.733 29.8667 196.8 30.32C197.893 30.7467 198.44 31.4 198.44 32.28ZM193.32 35.84C194.733 35.76 196.36 35.5467 198.2 35.2C200.04 34.8533 201.4 34.5333 202.28 34.24C202.627 34.1333 202.96 34.08 203.28 34.08C203.627 34.08 204.213 34.3333 205.04 34.84C205.867 35.32 206.4 35.68 206.64 35.92C206.88 36.1333 207 36.36 207 36.6C207 36.84 206.853 37.1467 206.56 37.52C206.293 37.8933 206.12 38.3867 206.04 39C205.96 39.6133 205.92 40.44 205.92 41.48L205.96 44.48C205.96 46.32 205.693 47.8933 205.16 49.2C204.653 50.5333 204.16 51.2 203.68 51.2C203.227 51.2 202.773 50.3333 202.32 48.6C202.133 47.8267 201.96 47.3333 201.8 47.12C201.667 46.9333 201.427 46.84 201.08 46.84C200.333 46.84 198.04 47.0667 194.2 47.52C194.067 48.1867 193.893 48.7067 193.68 49.08C193.467 49.4533 193.253 49.64 193.04 49.64C192.827 49.64 192.613 49.4667 192.4 49.12C192.187 48.8 192.08 48.4267 192.08 48C192.08 47.6 192.107 47.2667 192.16 47C192.347 45.7733 192.44 44.3733 192.44 42.8C192.44 41.2267 192.373 39.8933 192.24 38.8C192.107 37.68 191.933 36.9867 191.72 36.72C191.533 36.4267 191.44 36.16 191.44 35.92C191.44 35.68 191.613 35.56 191.96 35.56C192.333 35.56 192.787 35.6533 193.32 35.84ZM194.32 46.24C196.48 45.9733 197.96 45.76 198.76 45.6C199.56 45.44 200.24 45.36 200.8 45.36C201.387 45.36 201.84 45.56 202.16 45.96C202.48 46.36 202.72 46.56 202.88 46.56C203.307 46.56 203.52 45.0133 203.52 41.92C203.52 40.32 203.467 39.0667 203.36 38.16C203.253 37.2267 203.08 36.6133 202.84 36.32C202.6 36.0267 202.12 35.88 201.4 35.88C200.707 35.88 198.333 36.2 194.28 36.84C194.333 37.6667 194.387 39.0267 194.44 40.92C197.533 40.0933 199.613 39.68 200.68 39.68C201.053 39.68 201.347 39.76 201.56 39.92C201.773 40.0533 201.88 40.2267 201.88 40.44C201.88 40.6533 201.72 40.84 201.4 41C201.107 41.16 200.36 41.32 199.16 41.48C197.987 41.64 197 41.72 196.2 41.72C195.4 41.72 194.813 41.7067 194.44 41.68C194.44 43.5467 194.4 45.0667 194.32 46.24ZM239.23 25.24C239.23 26.84 239.283 27.9467 239.39 28.56C239.523 29.1733 239.79 29.5733 240.19 29.76C240.617 29.92 241.497 30 242.83 30C244.163 30 245.243 29.7333 246.07 29.2C246.897 28.64 247.51 27.72 247.91 26.44C248.097 25.8267 248.257 25.52 248.39 25.52C248.55 25.52 248.657 25.7467 248.71 26.2C248.817 27.08 248.963 27.7733 249.15 28.28C249.363 28.76 249.47 29.0667 249.47 29.2C249.47 29.8933 248.857 30.5067 247.63 31.04C246.43 31.5733 244.857 31.84 242.91 31.84C241.63 31.84 240.603 31.6533 239.83 31.28C239.057 30.88 238.497 30.2267 238.15 29.32C237.803 28.3867 237.643 27.0667 237.67 25.36L237.71 22.68C237.71 19.6667 237.537 17.8933 237.19 17.36C236.843 16.8 236.67 16.4133 236.67 16.2C236.67 15.96 236.83 15.84 237.15 15.84C237.47 15.84 238.043 16.04 238.87 16.44C239.723 16.8133 240.15 17.24 240.15 17.72C240.15 17.96 240.083 18.24 239.95 18.56C239.817 18.8533 239.67 19.6267 239.51 20.88C239.377 22.1333 239.283 23.32 239.23 24.44C242.297 22.5733 243.977 21.36 244.27 20.8C244.59 20.24 244.883 19.96 245.15 19.96C245.417 19.96 245.763 20.2133 246.19 20.72C246.643 21.2267 246.87 21.6267 246.87 21.92C246.87 22.1867 246.577 22.3733 245.99 22.48C245.43 22.5867 243.177 23.5067 239.23 25.24ZM232.71 25.32C232.15 24.0133 231.87 23.2533 231.87 23.04C231.87 22.8267 231.977 22.72 232.19 22.72C232.43 22.72 233.07 23.16 234.11 24.04C235.15 24.92 235.67 25.8 235.67 26.68C235.67 27.16 235.577 27.6133 235.39 28.04C235.203 28.44 234.99 28.64 234.75 28.64C234.51 28.64 234.283 28.52 234.07 28.28C233.883 28.0133 233.563 27.3333 233.11 26.24C230.817 26.9867 228.723 27.7467 226.83 28.52C224.963 29.2667 223.75 29.8133 223.19 30.16C222.63 30.5067 222.243 30.68 222.03 30.68C221.55 30.68 221.31 30.0667 221.31 28.84C221.31 28.2267 221.563 27.8667 222.07 27.76C222.683 27.6267 223.137 27.4133 223.43 27.12C223.75 26.8 224.377 25.96 225.31 24.6C226.27 23.24 226.99 22.0533 227.47 21.04C227.977 20 228.23 19.1867 228.23 18.6C228.23 18.3867 228.203 18.2133 228.15 18.08C228.097 17.9467 228.07 17.8267 228.07 17.72C228.07 17.4533 228.257 17.32 228.63 17.32C229.003 17.32 229.563 17.5867 230.31 18.12C231.083 18.6267 231.47 19.0267 231.47 19.32C231.47 19.6133 231.35 19.8533 231.11 20.04C230.577 20.44 228.257 22.9733 224.15 27.64C226.47 27.2667 229.323 26.4933 232.71 25.32ZM225.11 32.04C227.59 31.5067 229.257 31.0267 230.11 30.6C230.43 30.4667 230.763 30.4 231.11 30.4C231.457 30.4 232.017 30.64 232.79 31.12C233.59 31.6 233.99 32.0133 233.99 32.36C233.99 32.5467 233.857 32.7467 233.59 32.96C233.35 33.1733 233.23 34.1733 233.23 35.96C233.23 37.72 233.417 40.2533 233.79 43.56C233.817 43.88 233.83 44.1733 233.83 44.44C233.83 45.3467 233.563 46.3733 233.03 47.52C232.497 48.6933 232.07 49.28 231.75 49.28C231.537 49.28 231.23 48.96 230.83 48.32C230.43 47.68 229.883 46.9467 229.19 46.12C229.03 45.9067 228.95 45.7333 228.95 45.6C228.95 45.4933 229.017 45.44 229.15 45.44C229.31 45.44 229.497 45.4533 229.71 45.48C229.95 45.5333 230.177 45.56 230.39 45.56C230.95 45.56 231.297 45.3467 231.43 44.92C231.59 44.4667 231.67 43.04 231.67 40.64C231.67 39.5733 231.643 38.44 231.59 37.24C231.537 36.04 231.457 35 231.35 34.12C231.27 33.2133 231.177 32.68 231.07 32.52C230.99 32.36 230.857 32.2533 230.67 32.2C230.483 32.12 230.243 32.08 229.95 32.08C229.283 32.08 227.937 32.32 225.91 32.8C225.963 34.08 225.963 35.3067 225.91 36.48C227.537 35.92 228.523 35.64 228.87 35.64C229.217 35.64 229.51 35.6933 229.75 35.8C230.017 35.88 230.15 36.0533 230.15 36.32C230.15 36.56 229.79 36.76 229.07 36.92C228.377 37.08 227.803 37.16 227.35 37.16C226.923 37.16 226.443 37.12 225.91 37.04C225.803 38.72 225.71 39.9733 225.63 40.8C227.31 40.2133 228.323 39.92 228.67 39.92C229.043 39.92 229.363 40 229.63 40.16C229.923 40.32 230.07 40.5067 230.07 40.72C230.07 40.9067 229.683 41.0933 228.91 41.28C228.137 41.44 227.523 41.52 227.07 41.52C226.643 41.52 226.15 41.4533 225.59 41.32C225.457 42.6 225.163 44.12 224.71 45.88C224.283 47.64 223.857 48.52 223.43 48.52C223.19 48.52 222.977 48.24 222.79 47.68C222.603 47.12 222.51 46.6533 222.51 46.28C222.51 45.9067 222.577 45.5733 222.71 45.28C223.83 42.7467 224.39 39.3733 224.39 35.16C224.39 33.9867 224.31 33.2267 224.15 32.88C223.99 32.5333 223.91 32.28 223.91 32.12C223.91 31.96 224.017 31.88 224.23 31.88C224.47 31.88 224.763 31.9333 225.11 32.04ZM239.63 39.64C239.577 40.7867 239.55 41.64 239.55 42.2C239.55 43.6133 239.803 44.6133 240.31 45.2C240.817 45.7867 241.883 46.08 243.51 46.08C245.137 46.08 246.403 45.9733 247.31 45.76C248.217 45.5467 248.883 45.2933 249.31 45C249.737 44.7067 250.083 44.2267 250.35 43.56C250.643 42.8933 250.923 42.0133 251.19 40.92C251.483 39.8267 251.683 39.28 251.79 39.28C251.897 39.28 251.977 39.5733 252.03 40.16C252.083 40.72 252.217 41.5067 252.43 42.52C252.643 43.5067 252.817 44.1867 252.95 44.56C253.11 44.9333 253.19 45.2533 253.19 45.52C253.19 46.2667 252.31 46.9333 250.55 47.52C248.79 48.1067 247.07 48.4 245.39 48.4C243.71 48.4 242.457 48.2667 241.63 48C240.83 47.76 240.15 47.36 239.59 46.8C239.057 46.24 238.67 45.56 238.43 44.76C238.217 43.9333 238.11 42.8933 238.11 41.64C238.137 40.36 238.15 39.5733 238.15 39.28C238.15 35.8933 238.017 33.9733 237.75 33.52C237.51 33.0667 237.39 32.7333 237.39 32.52C237.39 32.3067 237.51 32.2 237.75 32.2C237.99 32.2 238.483 32.4 239.23 32.8C239.977 33.2 240.35 33.56 240.35 33.88C240.35 34.2 240.283 34.6133 240.15 35.12C240.017 35.6267 239.857 36.92 239.67 39C242.87 37.3733 244.563 36.1867 244.75 35.44C244.857 34.96 245.03 34.72 245.27 34.72C245.537 34.72 245.95 35.04 246.51 35.68C247.07 36.2933 247.35 36.7067 247.35 36.92C247.35 37.1067 247.163 37.2533 246.79 37.36L239.63 39.64ZM286.26 21.84C287.38 21.4933 288.207 21.32 288.74 21.32C289.273 21.32 289.727 21.44 290.1 21.68C290.5 21.8933 290.7 22.1467 290.7 22.44C290.7 22.7333 290.473 22.9467 290.02 23.08C289.567 23.2133 288.26 23.3733 286.1 23.56L285.82 28.68C285.767 30.2267 285.593 31.3867 285.3 32.16C285.033 32.9333 284.767 33.32 284.5 33.32C284.233 33.32 283.98 33.12 283.74 32.72C283.5 32.2933 282.993 32.08 282.22 32.08C281.98 32.08 281.567 32.1333 280.98 32.24C280.42 32.3467 279.647 32.4267 278.66 32.48C278.58 33.0933 278.367 33.4 278.02 33.4C277.46 33.4 277.14 32.64 277.06 31.12L276.66 24.84C276.18 24.8933 275.593 24.92 274.9 24.92C274.207 24.92 273.687 24.8267 273.34 24.64C273.02 24.4533 272.86 24.28 272.86 24.12C272.86 23.8533 273.233 23.72 273.98 23.72C274.727 23.72 275.58 23.6667 276.54 23.56C276.353 21.88 276.06 20.8133 275.66 20.36C275.26 19.9067 275.06 19.5733 275.06 19.36C275.06 19.12 275.22 19 275.54 19C275.887 19 276.34 19.0933 276.9 19.28C277.46 19.44 277.82 19.6 277.98 19.76C278.167 19.92 278.26 20.1333 278.26 20.4C278.26 20.6667 278.233 20.96 278.18 21.28C278.127 21.6 278.127 22.2933 278.18 23.36C280.66 23.0667 282.687 22.7333 284.26 22.36C284.287 19.8533 284.087 18.3333 283.66 17.8C283.233 17.24 283.02 16.84 283.02 16.6C283.02 16.3333 283.18 16.2 283.5 16.2C283.82 16.2 284.447 16.3867 285.38 16.76C286.34 17.1333 286.82 17.4933 286.82 17.84C286.82 18.1867 286.753 18.5867 286.62 19.04C286.487 19.4667 286.367 20.4 286.26 21.84ZM284.22 23.8C281.527 24.0933 279.527 24.3733 278.22 24.64C278.3 25.92 278.353 26.9467 278.38 27.72C280.247 27.1333 281.34 26.84 281.66 26.84C282.007 26.84 282.34 26.9067 282.66 27.04C282.98 27.1467 283.14 27.32 283.14 27.56C283.14 27.8 282.673 28.0133 281.74 28.2C280.833 28.36 280.14 28.44 279.66 28.44C279.207 28.44 278.793 28.4 278.42 28.32L278.66 31.68C280.953 31.1733 282.207 30.92 282.42 30.92C282.66 30.92 282.82 30.9467 282.9 31C283.14 31.1067 283.327 31.16 283.46 31.16C283.62 31.16 283.727 30.9867 283.78 30.64C283.86 30.2933 283.94 29.36 284.02 27.84C284.127 26.2933 284.193 24.9467 284.22 23.8ZM270.5 29.6C270.553 29.1733 270.58 28.7867 270.58 28.44C270.58 28.0667 270.553 27.7867 270.5 27.6C270.473 27.3867 270.46 27.2267 270.46 27.12C270.46 26.72 270.593 26.52 270.86 26.52C271.153 26.52 271.593 26.72 272.18 27.12C272.767 27.52 273.06 27.88 273.06 28.2C273.06 28.4933 272.927 29.04 272.66 29.84C272.42 30.6133 272.26 31.2 272.18 31.6C271.433 34.6667 270.407 37.2 269.1 39.2C270.86 40.72 271.74 42.1067 271.74 43.36C271.74 44.1333 271.513 44.52 271.06 44.52C270.66 44.52 270.207 44.1067 269.7 43.28C269.22 42.4267 268.673 41.5867 268.06 40.76C266.727 42.3867 265.34 43.6267 263.9 44.48C262.46 45.3067 261.473 45.72 260.94 45.72C260.807 45.72 260.74 45.6533 260.74 45.52C260.74 45.3867 260.98 45.1467 261.46 44.8C263.673 43.28 265.553 41.5333 267.1 39.56C266.54 38.7333 265.993 38.16 265.46 37.84C264.953 37.52 264.7 37.12 264.7 36.64L265.38 32.24C263.7 32.7467 262.527 33.1467 261.86 33.44C261.193 33.7067 260.687 33.84 260.34 33.84C260.02 33.84 259.593 33.6533 259.06 33.28C258.527 32.9067 258.26 32.6133 258.26 32.4C258.26 32.16 258.353 31.9867 258.54 31.88C258.753 31.7733 259.02 31.7333 259.34 31.76H260.18C260.527 31.76 262.327 31.4133 265.58 30.72C265.927 27.84 266.1 25.3733 266.1 23.32C266.1 21.2667 265.967 20.0533 265.7 19.68C265.433 19.28 265.3 18.96 265.3 18.72C265.3 18.48 265.447 18.36 265.74 18.36C266.06 18.36 266.673 18.6 267.58 19.08C268.487 19.5333 268.94 20.08 268.94 20.72C268.94 20.9867 268.873 21.2533 268.74 21.52C268.607 21.7867 268.047 24.7467 267.06 30.4L270.5 29.6ZM270.34 30.8L266.78 31.84L266.14 35.76C266.087 36.0533 266.06 36.32 266.06 36.56C266.06 36.7733 266.18 36.96 266.42 37.12C266.66 37.28 267.167 37.64 267.94 38.2C269.06 36.0933 269.86 33.6267 270.34 30.8ZM282.46 36.88C284.353 38.72 285.847 40.08 286.94 40.96C288.06 41.8133 289.167 42.4933 290.26 43C291.38 43.5067 292.98 44.0933 295.06 44.76C295.78 44.9733 296.14 45.2133 296.14 45.48C296.14 45.5867 296.047 45.68 295.86 45.76C295.7 45.84 295.153 45.92 294.22 46C293.287 46.1067 292.367 46.16 291.46 46.16C290.58 46.16 289.913 46.1067 289.46 46C289.007 45.8933 288.593 45.6533 288.22 45.28C287.873 44.9333 286.927 43.7867 285.38 41.84C283.833 39.8933 282.74 38.5067 282.1 37.68C282.1 38.8533 282.14 40.5467 282.22 42.76C282.327 44.9733 282.38 46.48 282.38 47.28C282.38 48.1067 282.273 48.8 282.06 49.36C281.847 49.92 281.567 50.2 281.22 50.2C280.873 50.2 280.567 49.8267 280.3 49.08C280.033 48.3333 279.9 47.7333 279.9 47.28C279.9 46.8533 279.953 46.44 280.06 46.04C280.193 45.64 280.3 44.9333 280.38 43.92C280.487 42.88 280.54 41.9467 280.54 41.12V38.4C278.913 41.3867 276.953 43.6267 274.66 45.12C272.393 46.6133 270.98 47.36 270.42 47.36C270.26 47.36 270.18 47.3067 270.18 47.2C270.18 46.96 270.407 46.68 270.86 46.36C274.807 43.4533 277.62 40.4133 279.3 37.24C277.647 37.4533 276.407 37.6933 275.58 37.96C274.753 38.2 274.127 38.32 273.7 38.32C273.273 38.32 272.833 38.1867 272.38 37.92C271.953 37.6267 271.74 37.4 271.74 37.24C271.74 36.9467 272.287 36.8 273.38 36.8C274.5 36.8 276.86 36.56 280.46 36.08C280.433 35.2 280.353 34.6667 280.22 34.48C280.087 34.2667 280.02 34.0667 280.02 33.88C280.02 33.56 280.193 33.4 280.54 33.4C280.7 33.4 281.047 33.4933 281.58 33.68C282.113 33.84 282.38 34.0533 282.38 34.32C282.38 34.56 282.34 34.7733 282.26 34.96C282.18 35.1467 282.127 35.44 282.1 35.84C285.06 35.36 287.1 34.9733 288.22 34.68C288.7 34.5467 289.34 34.48 290.14 34.48C290.967 34.48 291.62 34.6533 292.1 35C292.58 35.3467 292.82 35.6667 292.82 35.96C292.82 36.4133 292.233 36.64 291.06 36.64L288.46 36.6C286.54 36.6 284.54 36.6933 282.46 36.88ZM321.53 27.24C323.397 30.4133 325.237 32.96 327.05 34.88C328.89 36.7733 331.077 38.3067 333.61 39.48C335.37 40.28 336.25 40.8 336.25 41.04C336.25 41.3067 335.277 41.44 333.33 41.44C331.41 41.44 330.09 41.3333 329.37 41.12C328.65 40.88 327.903 40.2933 327.13 39.36C326.383 38.4 325.61 37.2 324.81 35.76C324.01 34.32 322.597 31.5067 320.57 27.32C320.49 29.2667 320.45 31.36 320.45 33.6C320.45 35.8133 320.463 37.6133 320.49 39C320.757 38.8933 321.197 38.8 321.81 38.72C322.423 38.6133 322.863 38.5333 323.13 38.48C323.397 38.4 323.77 38.36 324.25 38.36C324.73 38.36 325.143 38.4533 325.49 38.64C325.837 38.8267 326.01 39.0267 326.01 39.24C326.01 39.4533 325.743 39.6667 325.21 39.88C324.703 40.0667 323.983 40.2267 323.05 40.36C322.117 40.4933 321.263 40.6267 320.49 40.76V44.24C320.517 44.8267 320.53 45.3733 320.53 45.88C320.53 48.4667 320.17 49.76 319.45 49.76C319.103 49.76 318.783 49.44 318.49 48.8C318.223 48.16 318.09 47.56 318.09 47C318.09 46.4667 318.143 46.0267 318.25 45.68C318.357 45.3333 318.517 43.7867 318.73 41.04C317.77 41.12 316.77 41.16 315.73 41.16C314.69 41.16 314.023 41.0667 313.73 40.88C313.437 40.6933 313.29 40.5467 313.29 40.44C313.29 40.1733 313.65 39.9867 314.37 39.88C315.81 39.8 317.277 39.6 318.77 39.28C318.903 37.2267 319.023 34 319.13 29.6C318.197 31.7867 317.023 33.7467 315.61 35.48C314.223 37.1867 312.783 38.5867 311.29 39.68C309.797 40.7733 308.863 41.32 308.49 41.32C308.41 41.32 308.37 41.2933 308.37 41.24C308.37 41.0533 308.597 40.7333 309.05 40.28C313.53 35.9333 316.463 31.7333 317.85 27.68C317.05 27.76 316.61 27.8133 316.53 27.84C315.09 28.1867 314.13 28.36 313.65 28.36C313.17 28.36 312.65 28.24 312.09 28C311.557 27.76 311.29 27.5733 311.29 27.44C311.29 27.28 311.823 27.1733 312.89 27.12C313.29 27.0933 314.21 26.9467 315.65 26.68L319.17 26.04C319.143 23.6933 319.063 21.7333 318.93 20.16C318.797 18.56 318.623 17.6267 318.41 17.36C318.223 17.0667 318.13 16.8 318.13 16.56C318.13 16.2933 318.29 16.16 318.61 16.16C318.93 16.16 319.543 16.3467 320.45 16.72C321.383 17.0933 321.85 17.4667 321.85 17.84C321.85 18.1867 321.77 18.56 321.61 18.96C321.477 19.3333 321.303 20.2533 321.09 21.72C320.877 23.16 320.717 24.4933 320.61 25.72C321.677 25.5067 322.597 25.2667 323.37 25C324.89 24.5467 326.01 24.32 326.73 24.32C327.45 24.32 328.197 24.48 328.97 24.8C329.77 25.0933 330.17 25.4267 330.17 25.8C330.17 26.1467 329.53 26.3733 328.25 26.48C326.997 26.5867 324.757 26.84 321.53 27.24ZM306.05 29C304.743 30.9467 303.29 32.6667 301.69 34.16C300.09 35.6533 299.05 36.4 298.57 36.4C298.437 36.4 298.37 36.3467 298.37 36.24C298.37 36.1067 298.503 35.9067 298.77 35.64C299.703 34.68 300.917 33.1467 302.41 31.04C303.903 28.9333 305.21 26.72 306.33 24.4C307.45 22.0533 308.01 20.36 308.01 19.32C308.01 19.0267 307.97 18.8 307.89 18.64C307.837 18.48 307.81 18.3467 307.81 18.24C307.81 17.8667 308.023 17.68 308.45 17.68C308.903 17.68 309.53 18.0133 310.33 18.68C311.157 19.32 311.57 19.7867 311.57 20.08C311.57 20.3467 311.463 20.5733 311.25 20.76C311.063 20.92 310.823 21.2 310.53 21.6C310.263 22 309.41 23.4667 307.97 26C307.677 26.5333 307.303 27.1467 306.85 27.84C307.303 28.1867 307.65 28.5333 307.89 28.88C308.157 29.2267 308.29 29.6267 308.29 30.08L308.17 35.68C308.09 38.4533 308.05 40.3333 308.05 41.32C308.05 42.28 307.943 43.4133 307.73 44.72C307.543 46.0267 307.357 46.84 307.17 47.16C306.983 47.5067 306.73 47.68 306.41 47.68C306.117 47.68 305.837 47.3067 305.57 46.56C305.303 45.8133 305.17 45.16 305.17 44.6C305.17 44.0133 305.25 43.52 305.41 43.12C305.703 42.32 305.957 40.88 306.17 38.8C306.41 36.6933 306.53 34.8 306.53 33.12C306.53 31.4133 306.37 30.04 306.05 29ZM375 31.96C375 32.0933 374.92 32.1867 374.76 32.24C374.6 32.2933 373.84 32.36 372.48 32.44C371.147 32.4933 370.027 32.52 369.12 32.52C368.24 32.52 367.6 32.4267 367.2 32.24C366.8 32.0267 366.187 31.48 365.36 30.6C364.56 29.6933 363.253 28.0133 361.44 25.56C359.627 23.1067 358.173 21.2933 357.08 20.12C355.987 18.9467 354.707 18.08 353.24 17.52C352.813 17.3333 352.6 17.12 352.6 16.88C352.6 16.6133 353 16.48 353.8 16.48C355.4 16.48 356.88 17.32 358.24 19C360.693 21.9867 362.627 24.1867 364.04 25.6C365.453 26.9867 366.853 28.0667 368.24 28.84C369.627 29.5867 371.56 30.3867 374.04 31.24C374.68 31.48 375 31.72 375 31.96ZM354.08 23.68C354.08 23.9467 353.893 24.24 353.52 24.56C353.173 24.8533 352.32 25.88 350.96 27.64C349.6 29.4 348.187 30.8667 346.72 32.04C345.28 33.2133 343.933 34.08 342.68 34.64C341.427 35.2 340.587 35.48 340.16 35.48C340 35.48 339.92 35.4133 339.92 35.28C339.92 35.1467 340.147 34.9333 340.6 34.64C343.347 32.8533 345.733 30.7333 347.76 28.28C349.787 25.8267 350.8 23.9733 350.8 22.72L350.76 22.08C350.76 21.6267 350.92 21.4 351.24 21.4C351.587 21.4 352.147 21.6933 352.92 22.28C353.693 22.84 354.08 23.3067 354.08 23.68ZM352.52 34.64C350.707 35.2 349.48 35.48 348.84 35.48C348.227 35.48 347.72 35.3333 347.32 35.04C346.947 34.7467 346.76 34.52 346.76 34.36C346.76 34.1733 347.133 34.0667 347.88 34.04C348.627 33.9867 350.4 33.72 353.2 33.24C356.027 32.76 357.973 32.2533 359.04 31.72C359.467 31.48 359.947 31.36 360.48 31.36C361.04 31.36 361.867 31.7067 362.96 32.4C364.053 33.0667 364.6 33.5333 364.6 33.8C364.6 34.0667 364.453 34.3467 364.16 34.64C363.893 34.9333 363.68 35.3467 363.52 35.88C363.36 36.4133 363.067 37.8 362.64 40.04C362.24 42.28 361.707 44.08 361.04 45.44C360.373 46.8 359.6 47.7867 358.72 48.4C357.867 49.04 357.24 49.36 356.84 49.36C356.44 49.36 356.16 49.08 356 48.52C355.52 47.2133 355.04 46.2 354.56 45.48C354.08 44.76 353.84 44.32 353.84 44.16C353.84 44 353.92 43.92 354.08 43.92C354.24 43.92 354.453 43.9867 354.72 44.12C355.76 44.6533 356.507 44.92 356.96 44.92C357.413 44.92 357.773 44.8 358.04 44.56C358.333 44.2933 358.747 43.56 359.28 42.36C359.813 41.16 360.24 39.68 360.56 37.92C360.88 36.1333 361.04 35.0267 361.04 34.6C361.04 34.1467 360.947 33.84 360.76 33.68C360.573 33.52 360.24 33.44 359.76 33.44C358.747 33.44 356.84 33.7067 354.04 34.24C355.053 34.8533 355.56 35.2933 355.56 35.56C355.56 35.8 355.453 36.0267 355.24 36.24C354.787 36.6933 354.133 37.56 353.28 38.84C352.453 40.12 351.293 41.4267 349.8 42.76C348.307 44.0933 346.787 45.1467 345.24 45.92C343.72 46.6933 342.547 47.08 341.72 47.08C341.427 47.08 341.28 47 341.28 46.84C341.28 46.7067 341.453 46.5333 341.8 46.32C345.293 44.24 347.907 42.16 349.64 40.08C351.373 38 352.333 36.1867 352.52 34.64ZM389.95 32.56C392.803 32.8267 394.23 33.64 394.23 35C394.23 35.2667 394.15 35.4933 393.99 35.68C393.857 35.84 393.657 35.92 393.39 35.92C393.15 35.92 392.697 35.6667 392.03 35.16C391.39 34.6267 390.697 33.96 389.95 33.16L390.27 43.2C390.27 44.96 390.11 46.3867 389.79 47.48C389.47 48.6 389.15 49.16 388.83 49.16C388.537 49.16 388.217 48.7467 387.87 47.92C387.55 47.0933 387.39 46.4933 387.39 46.12C387.39 45.7733 387.47 45.3067 387.63 44.72C387.95 43.36 388.163 41.7733 388.27 39.96C388.403 38.12 388.457 35.1467 388.43 31.04C387.71 33.28 386.683 35.32 385.35 37.16C384.017 38.9733 382.697 40.36 381.39 41.32C380.083 42.28 379.297 42.76 379.03 42.76C378.923 42.76 378.87 42.6933 378.87 42.56C378.87 42.4267 379.03 42.2133 379.35 41.92C380.763 40.5333 382.217 38.6933 383.71 36.4C385.23 34.08 386.55 31.64 387.67 29.08C385.537 29.56 384.017 29.8 383.11 29.8C382.23 29.8 381.617 29.72 381.27 29.56C380.923 29.4 380.75 29.2533 380.75 29.12C380.75 28.96 381.003 28.8267 381.51 28.72C383.617 28.2667 385.923 27.68 388.43 26.96C388.403 23.9733 388.283 21.8533 388.07 20.6C387.883 19.32 387.603 18.4267 387.23 17.92C386.883 17.3867 386.71 16.9733 386.71 16.68C386.71 16.36 386.937 16.2 387.39 16.2C387.79 16.2 388.47 16.4267 389.43 16.88C390.39 17.3333 390.87 17.8 390.87 18.28C390.87 18.4133 390.843 18.6 390.79 18.84C390.337 20.84 390.07 23.3867 389.99 26.48C391.59 26.0267 392.67 25.8 393.23 25.8C393.897 25.8 394.23 25.9867 394.23 26.36C394.23 26.6267 393.963 26.92 393.43 27.24C392.923 27.56 391.75 27.9867 389.91 28.52C389.91 30.1733 389.923 31.52 389.95 32.56ZM399.31 30.08C402.27 29.7333 405.817 28.88 409.95 27.52C410.67 27.3067 411.363 27.2 412.03 27.2C412.697 27.2 413.31 27.3467 413.87 27.64C414.43 27.9067 414.71 28.1867 414.71 28.48C414.71 28.7733 414.257 29.04 413.35 29.28C412.47 29.52 410.083 29.8933 406.19 30.4C406.963 30.7733 407.35 31.1867 407.35 31.64C407.35 31.7733 407.323 31.9333 407.27 32.12C407.057 32.84 406.95 34 406.95 35.6L407.19 45.48C407.19 46.7867 407.11 48.0133 406.95 49.16C406.79 50.3067 406.643 51 406.51 51.24C406.403 51.5067 406.27 51.64 406.11 51.64C405.79 51.64 405.563 51.2 405.43 50.32C405.297 49.44 405.203 48.4 405.15 47.2L404.95 39.52C404.79 35.4667 404.577 32.52 404.31 30.68C402.23 30.9733 400.923 31.12 400.39 31.12C399.883 31.12 399.523 31.1067 399.31 31.08C399.23 34.1733 398.79 36.6533 397.99 38.52C397.217 40.36 396.203 41.7867 394.95 42.8C393.723 43.7867 392.91 44.28 392.51 44.28C392.377 44.28 392.31 44.2133 392.31 44.08C392.31 43.92 392.523 43.64 392.95 43.24C394.39 41.88 395.483 40.2267 396.23 38.28C396.977 36.3333 397.35 33.5333 397.35 29.88C397.35 27.6667 397.137 26.2 396.71 25.48C396.283 24.76 396.07 24.2667 396.07 24C396.07 23.7333 396.23 23.6 396.55 23.6C396.897 23.6 397.523 23.8 398.43 24.2C400.323 23.1067 401.777 22.1067 402.79 21.2C403.83 20.2667 404.363 19.5467 404.39 19.04C404.443 18.5333 404.67 18.28 405.07 18.28C405.497 18.28 406.23 18.5333 407.27 19.04C408.337 19.5467 408.87 19.9333 408.87 20.2C408.87 20.4667 408.537 20.72 407.87 20.96C406.377 21.4933 405.163 21.9733 404.23 22.4C403.323 22.8 401.563 23.6933 398.95 25.08C399.243 25.8267 399.363 27.4933 399.31 30.08ZM446.86 29.04C447.073 29.0133 447.7 28.8933 448.74 28.68C449.78 28.4667 450.753 28.36 451.66 28.36C452.567 28.36 453.313 28.5467 453.9 28.92C454.487 29.2933 454.78 29.64 454.78 29.96C454.78 30.4667 454.127 30.72 452.82 30.72L450.34 30.64C449.327 30.64 448.167 30.68 446.86 30.76L447.1 42.28C447.1 43.88 447.033 45.3867 446.9 46.8C446.767 48.24 446.607 49.1867 446.42 49.64C446.233 50.0933 446.02 50.32 445.78 50.32C445.06 50.32 444.7 48.2133 444.7 44C444.7 43.04 444.727 41.92 444.78 40.64C444.833 39.3333 444.86 37.8533 444.86 36.2C444.86 34.5467 444.847 32.8267 444.82 31.04C443.7 31.12 442.22 31.3067 440.38 31.6C440.193 34.8267 439.527 37.48 438.38 39.56C437.26 41.6133 435.967 43.16 434.5 44.2C433.033 45.2133 432.087 45.72 431.66 45.72C431.447 45.72 431.34 45.6267 431.34 45.44C431.34 45.2533 431.473 45.0533 431.74 44.84C435.98 41.3733 438.287 37.08 438.66 31.96C436.713 32.3333 435.447 32.52 434.86 32.52C434.3 32.52 433.82 32.4133 433.42 32.2C433.047 31.96 432.86 31.7467 432.86 31.56C432.86 31.3467 433.073 31.2133 433.5 31.16L438.7 30.4C438.753 26.08 438.46 23.3333 437.82 22.16C437.153 22.1067 436.62 21.9867 436.22 21.8C435.847 21.6133 435.66 21.44 435.66 21.28C435.66 21.12 435.94 21 436.5 20.92C438.553 20.7333 441.553 20.0667 445.5 18.92C446.727 18.5733 447.647 18.4 448.26 18.4C448.873 18.4 449.473 18.5467 450.06 18.84C450.673 19.1333 450.98 19.4133 450.98 19.68C450.98 19.92 450.727 20.1333 450.22 20.32C449.713 20.5067 447.953 20.88 444.94 21.44C445.9 21.9467 446.513 22.3467 446.78 22.64C447.047 22.9067 447.153 23.2267 447.1 23.6C446.913 24.9867 446.833 26.8 446.86 29.04ZM444.74 29.4C444.66 26.44 444.567 24.4933 444.46 23.56C444.353 22.6 444.18 21.9467 443.94 21.6C441.86 21.8667 440.247 22.04 439.1 22.12C439.66 22.4667 440.087 22.7733 440.38 23.04C440.673 23.3067 440.82 23.56 440.82 23.8C440.82 24.04 440.793 24.2667 440.74 24.48C440.633 24.9867 440.527 26.8667 440.42 30.12C442.393 29.8 443.833 29.56 444.74 29.4ZM427.1 22.08C426.113 22.2667 425.287 22.36 424.62 22.36C423.98 22.36 423.393 22.2533 422.86 22.04C422.353 21.8267 422.1 21.6133 422.1 21.4C422.1 21.1867 422.313 21.0667 422.74 21.04C424.393 20.88 427.087 20.24 430.82 19.12C431.7 18.8 432.487 18.64 433.18 18.64C433.873 18.64 434.42 18.7733 434.82 19.04C435.22 19.28 435.42 19.4933 435.42 19.68C435.42 19.84 435.3 20.0133 435.06 20.2C434.847 20.36 433.927 20.64 432.3 21.04C430.673 21.4133 429.433 21.68 428.58 21.84C429.353 22.6133 429.74 23.16 429.74 23.48C429.74 23.7733 429.607 24.08 429.34 24.4C429.073 24.6933 428.073 26.4267 426.34 29.6C427.273 29.52 428.353 29.1867 429.58 28.6C429.98 28.4133 430.327 28.32 430.62 28.32C430.94 28.32 431.473 28.52 432.22 28.92C432.967 29.2933 433.34 29.6667 433.34 30.04C433.34 30.2267 433.26 30.4133 433.1 30.6C432.62 31.24 432.167 32.0667 431.74 33.08C431.34 34.0667 431.14 34.7733 431.14 35.2C431.14 35.6 431.273 35.8533 431.54 35.96C431.807 36.0667 431.94 36.2533 431.94 36.52C431.94 36.6267 431.9 36.7333 431.82 36.84C431.767 36.9467 431.153 37.12 429.98 37.36C428.807 37.6 427.607 37.7867 426.38 37.92C426.38 39.2533 426.313 40.1067 426.18 40.48C426.073 40.8267 425.9 41 425.66 41C425.42 41 425.193 40.8133 424.98 40.44C424.767 40.0667 424.66 39.6 424.66 39.04C424.633 36.8267 424.473 34.88 424.18 33.2C422.393 35.84 420.807 37.7333 419.42 38.88C418.06 40 417.18 40.56 416.78 40.56C416.62 40.56 416.54 40.4933 416.54 40.36C416.54 40.2 416.673 39.9867 416.94 39.72C419.287 37.2667 421.5 34.3467 423.58 30.96C423.447 30.5067 423.38 30.1467 423.38 29.88C423.38 29.4267 423.5 29.2 423.74 29.2C424.007 29.2 424.26 29.2667 424.5 29.4C426.313 26.2 427.18 23.76 427.1 22.08ZM426.38 36.68C427.793 36.4933 428.647 36.2667 428.94 36C429.26 35.7333 429.487 35.1467 429.62 34.24C429.78 33.3067 429.86 32.5067 429.86 31.84C429.86 31.1467 429.82 30.7067 429.74 30.52C429.66 30.3067 429.38 30.2 428.9 30.2C428.42 30.2 427.353 30.36 425.7 30.68C426.127 32.4667 426.353 34.4667 426.38 36.68ZM473.21 16.24C474.863 16.24 476.09 16.48 476.89 16.96C477.69 17.4133 478.09 18.04 478.09 18.84C478.09 19.2133 477.97 19.5333 477.73 19.8C477.517 20.0667 477.25 20.2 476.93 20.2C476.61 20.2 476.157 20.04 475.57 19.72C474.983 19.3733 474.277 18.8267 473.45 18.08C472.65 17.3333 472.25 16.84 472.25 16.6C472.25 16.36 472.57 16.24 473.21 16.24ZM466.45 22.84C476.983 21.2667 482.623 20.3067 483.37 19.96C484.117 19.5867 484.637 19.4 484.93 19.4C485.463 19.4 486.423 19.8267 487.81 20.68C489.197 21.5333 489.89 22.2533 489.89 22.84C489.89 23.1867 489.663 23.3867 489.21 23.44C487.663 23.6533 486.13 24.2933 484.61 25.36C484.023 25.76 483.65 25.96 483.49 25.96C483.357 25.96 483.29 25.8933 483.29 25.76C483.29 25.6 483.49 25.0667 483.89 24.16C484.317 23.2533 484.53 22.6667 484.53 22.4C484.53 22.1067 484.477 21.92 484.37 21.84C484.263 21.76 483.943 21.72 483.41 21.72C482.903 21.72 481.49 21.88 479.17 22.2C476.877 22.4933 474.503 22.8667 472.05 23.32C469.623 23.7467 467.757 23.9733 466.45 24C466.077 25.2 465.57 26.3067 464.93 27.32C464.29 28.3333 463.69 28.84 463.13 28.84C462.837 28.84 462.61 28.6933 462.45 28.4C462.29 28.08 462.21 27.6933 462.21 27.24C462.21 26.76 462.317 26.36 462.53 26.04C463.703 24.1733 464.41 22.7867 464.65 21.88C464.81 21.32 465.023 21.04 465.29 21.04C465.583 21.04 465.97 21.64 466.45 22.84ZM476.97 24.88C477.45 24.88 478.21 25.08 479.25 25.48C480.29 25.8533 480.997 26.4 481.37 27.12C481.77 27.8133 481.97 28.3467 481.97 28.72C481.97 29.0667 481.877 29.3333 481.69 29.52C481.53 29.7067 481.317 29.8 481.05 29.8C480.463 29.8 479.557 29.1333 478.33 27.8C477.103 26.44 476.49 25.6133 476.49 25.32C476.49 25.0267 476.65 24.88 476.97 24.88ZM473.37 27C473.37 27.1867 473.237 27.36 472.97 27.52C472.73 27.68 472.343 28.08 471.81 28.72C471.277 29.36 470.25 30.1733 468.73 31.16C467.237 32.12 466.25 32.6 465.77 32.6C465.583 32.6 465.49 32.52 465.49 32.36C465.49 32.2 465.663 31.9867 466.01 31.72C467.263 30.7333 468.29 29.72 469.09 28.68C469.89 27.64 470.303 26.8133 470.33 26.2C470.357 25.56 470.53 25.24 470.85 25.24C471.197 25.24 471.703 25.4533 472.37 25.88C473.037 26.28 473.37 26.6533 473.37 27ZM474.21 34.24C476.023 33.8133 477.183 33.4267 477.69 33.08C478.197 32.7333 478.61 32.56 478.93 32.56C479.277 32.56 479.783 32.8 480.45 33.28C481.117 33.7333 481.45 34.1467 481.45 34.52C481.45 34.8667 481.183 35.2133 480.65 35.56C480.117 35.88 479.677 36.5867 479.33 37.68C478.983 38.7733 478.81 39.9867 478.81 41.32C478.81 42.6533 479.103 43.7733 479.69 44.68C480.303 45.56 481.837 46 484.29 46C485.677 46 486.783 45.8667 487.61 45.6C488.437 45.3333 489.023 44.9067 489.37 44.32C489.743 43.7333 490.197 42.48 490.73 40.56C490.97 39.6533 491.197 39.2 491.41 39.2C491.623 39.2 491.757 39.6933 491.81 40.68C491.837 41.08 491.943 41.7467 492.13 42.68C492.317 43.5867 492.49 44.1733 492.65 44.44C492.81 44.7067 492.89 45 492.89 45.32C492.89 46.1467 492.103 46.9067 490.53 47.6C488.983 48.32 487.023 48.68 484.65 48.68C482.303 48.68 480.41 48.1467 478.97 47.08C477.557 46.0133 476.85 44.28 476.85 41.88C476.85 40.52 476.97 39.1067 477.21 37.64C477.45 36.1467 477.57 35.32 477.57 35.16C477.57 34.9733 477.477 34.88 477.29 34.88C477.13 34.88 475.97 35.1467 473.81 35.68C473.063 38.32 471.917 40.68 470.37 42.76C468.823 44.8133 467.17 46.32 465.41 47.28C463.65 48.24 462.437 48.72 461.77 48.72C461.53 48.72 461.41 48.64 461.41 48.48C461.41 48.3467 461.677 48.12 462.21 47.8C464.397 46.4933 466.29 44.8133 467.89 42.76C469.517 40.68 470.65 38.5333 471.29 36.32C469.797 36.6667 468.717 36.9333 468.05 37.12C467.383 37.3067 466.823 37.4 466.37 37.4C465.917 37.4 465.437 37.2133 464.93 36.84C464.423 36.44 464.17 36.1467 464.17 35.96C464.17 35.7467 464.49 35.6267 465.13 35.6C466.997 35.52 469.157 35.24 471.61 34.76C471.797 33.7733 471.89 33.08 471.89 32.68C471.89 32.28 471.85 31.96 471.77 31.72C471.69 31.4533 471.65 31.1867 471.65 30.92C471.65 30.6533 471.837 30.52 472.21 30.52C472.583 30.52 473.143 30.68 473.89 31C474.663 31.2933 475.05 31.6533 475.05 32.08C475.05 32.24 474.983 32.3867 474.85 32.52C474.743 32.6533 474.53 33.2267 474.21 34.24ZM506 29.68C507.733 29.4933 509.253 28.9333 510.56 28C511.013 27.6533 511.36 27.48 511.6 27.48C511.867 27.48 512.44 27.6667 513.32 28.04C514.227 28.4133 514.68 28.7333 514.68 29C514.68 29.2667 514.52 29.5467 514.2 29.84C513.88 30.1067 513.467 30.7467 512.96 31.76C512.48 32.7733 512.24 33.4267 512.24 33.72C512.24 34.0133 512.347 34.2133 512.56 34.32C513.093 34.6667 513.36 34.9733 513.36 35.24C513.36 35.48 513.2 35.7067 512.88 35.92C512.587 36.1067 511.613 36.3733 509.96 36.72C508.333 37.0667 506.72 37.2533 505.12 37.28C504.64 39.3867 504.013 41.1867 503.24 42.68C502.467 44.1467 501.653 45.2533 500.8 46C499.947 46.7733 499.387 47.16 499.12 47.16C498.987 47.16 498.92 47.08 498.92 46.92C498.92 46.7867 499.053 46.56 499.32 46.24C500.6 44.6933 501.68 42.56 502.56 39.84C503.44 37.0933 503.88 34.04 503.88 30.68C503.88 29.16 503.787 27.8133 503.6 26.64C503.44 25.4667 503.187 24.64 502.84 24.16C502.493 23.68 502.32 23.32 502.32 23.08C502.32 22.84 502.533 22.72 502.96 22.72C503.387 22.72 504.333 23.0133 505.8 23.6C507.693 22.2667 508.92 21.32 509.48 20.76C510.04 20.2 510.347 19.68 510.4 19.2C510.48 18.4533 510.693 18.08 511.04 18.08C511.413 18.08 512.067 18.4 513 19.04C513.96 19.6533 514.44 20.16 514.44 20.56C514.44 20.96 514.16 21.2133 513.6 21.32C513.067 21.4 510.52 22.44 505.96 24.44C506.013 26.7067 506.027 28.4533 506 29.68ZM505.36 36.16C506.613 35.92 507.653 35.72 508.48 35.56C509.333 35.3733 509.88 35.1867 510.12 35C510.36 34.7867 510.547 34.12 510.68 33C510.813 31.8533 510.88 31.0933 510.88 30.72C510.88 30.32 510.707 30.12 510.36 30.12C510.013 30.12 509.32 30.2533 508.28 30.52C507.133 30.76 506.373 30.88 506 30.88C505.92 33.0133 505.707 34.7733 505.36 36.16ZM519.8 29.4C523.773 28.92 526.8 28.32 528.88 27.6C529.413 27.44 530.04 27.36 530.76 27.36C531.507 27.36 532.187 27.5067 532.8 27.8C533.413 28.0933 533.72 28.4133 533.72 28.76C533.72 29.08 533.36 29.28 532.64 29.36L526.48 30.04C526.56 41.16 526.4 47.72 526 49.72C525.627 51.7467 525.24 52.76 524.84 52.76C524.707 52.76 524.573 52.5733 524.44 52.2C524.307 51.8533 524.213 51.08 524.16 49.88C524.133 48.68 524.12 46.8 524.12 44.24C524.12 41.68 524.133 39.7333 524.16 38.4L524.2 35.12C524.2 34.1867 524.107 32.5867 523.92 30.32C522.747 30.4267 521.853 30.48 521.24 30.48C520.627 30.48 520.133 30.4533 519.76 30.4C519.627 33.5733 519.093 36.2533 518.16 38.44C517.253 40.6 516 42.3733 514.4 43.76C512.8 45.12 511.773 45.8 511.32 45.8C511.187 45.8 511.12 45.7333 511.12 45.6C511.12 45.4933 511.267 45.2933 511.56 45C513.8 42.7067 515.36 40.4667 516.24 38.28C517.147 36.0933 517.6 32.9733 517.6 28.92C517.6 27.6667 517.547 26.5867 517.44 25.68C517.36 24.7467 517.267 24.2133 517.16 24.08C516.787 23.6 516.6 23.24 516.6 23C516.6 22.76 516.827 22.64 517.28 22.64C517.733 22.64 518.533 22.8533 519.68 23.28C521.04 22.2933 521.96 21.5333 522.44 21C522.947 20.44 523.24 19.8533 523.32 19.24C523.427 18.6267 523.72 18.32 524.2 18.32C524.68 18.32 525.467 18.5867 526.56 19.12C527.653 19.6533 528.2 20.0667 528.2 20.36C528.2 20.6533 527.827 20.8933 527.08 21.08C526.36 21.2667 523.96 22.2933 519.88 24.16C519.907 25.7067 519.88 27.4533 519.8 29.4Z" fill="#880088"/>
<defs>
<filter id="filter0_d_36_5" x="0.90271" y="4.31702" width="164.44" height="57.538" filterUnits="userSpaceOnUse" color-interpolation-filters="sRGB">
<feFlood flood-opacity="0" result="BackgroundImageFix"/>
<feColorMatrix in="SourceAlpha" type="matrix" values="0 0 0 0 0 0 0 0 0 0 0 0 0 0 0 0 0 0 127 0" result="hardAlpha"/>
<feOffset dy="4"/>
<feGaussianBlur stdDeviation="2"/>
<feComposite in2="hardAlpha" operator="out"/>
<feColorMatrix type="matrix" values="0 0 0 0 0 0 0 0 0 0 0 0 0 0 0 0 0 0 0.1 0"/>
<feBlend mode="normal" in2="BackgroundImageFix" result="effect1_dropShadow_36_5"/>
<feBlend mode="normal" in="SourceGraphic" in2="effect1_dropShadow_36_5" result="shape"/>
</filter>
</defs>
</svg>
